<?xml version="1.0" encoding="UTF-8"?>
<svg
    xmlns="http://www.w3.org/2000/svg"
    xmlns:xlink="http://www.w3.org/1999/xlink"
    width="0"
    height="0"
>
    <defs>
        <symbol fill="none" id="volume_mute">
            <path
                fill="var(--icon-color, #FFFFFF)"
                fill-rule="evenodd"
                d="M6 15h.923l.702.287L11 18.613V5.448L7.81 8.7l-.714.3H4v6h2Zm0-8H3L2 8v8l1 1h3.513l4.785 4.712L13 21V3l-1.714-.7L6.676 7H6Zm12.657 3.526 2.262-2.263 1.132 1.132-2.262 2.263 2.262 2.262-1.131 1.13-2.262-2.262-2.263 2.264-1.132-1.132 2.263-2.264-2.263-2.262 1.131-1.131 2.263 2.263Z"
                clip-rule="evenodd"
            ></path>
        </symbol>
        <symbol fill="none" id="volume_low">
            <path
                fill="var(--icon-color, #FFFFFF)"
                fill-rule="evenodd"
                d="M6 15h.923l.702.287L11 18.613V5.448L7.81 8.7l-.714.3H4v6h2Zm0-8H3L2 8v8l1 1h3.513l4.785 4.712L13 21V3l-1.714-.7L6.676 7H6Zm9.2 2.6c.503.67.8 1.498.8 2.4 0 .902-.297 1.731-.8 2.4l1.6 1.2A5.978 5.978 0 0 0 18 12c0-1.35-.447-2.598-1.2-3.6l-1.6 1.2Z"
                clip-rule="evenodd"
            ></path>
        </symbol>
        <symbol fill="none" id="volume_high">
            <path
                fill="var(--icon-color, #FFFFFF)"
                fill-rule="evenodd"
                d="M6.923 15H4V9h3.096l.714-.3L11 5.448v13.164l-3.375-3.324L6.923 15ZM6 7h.676l4.61-4.7L13 3v18l-1.702.712L6.513 17H3l-1-1V8l1-1h3Zm14 5a8 8 0 0 0-4.445-7.169l.89-1.79A10 10 0 0 1 22 12a10 10 0 0 1-5.555 8.959l-.89-1.791A8 8 0 0 0 20 12Zm-4.8-2.4c.503.67.8 1.498.8 2.4 0 .902-.297 1.731-.8 2.4l1.6 1.2A5.977 5.977 0 0 0 18 12c0-1.35-.447-2.598-1.2-3.6l-1.6 1.2Z"
                clip-rule="evenodd"
            ></path>
        </symbol>
        <symbol fill="none" id="skip_to_next">
            <path
                fill="var(--icon-color, #FFFFFF)"
                fill-rule="evenodd"
                d="m18 12.747-.001-2.622L7.45 3.717 4 5.444v13.434l3.57 1.335L18 13.875V20h2V4h-2v8.747ZM6 6.68 7.357 6 16 11.25l.001 1.5L7.362 18 6 17.491V6.68Z"
                clip-rule="evenodd"
            ></path>
        </symbol>
        <symbol fill="none" id="share">
            <path
                fill="var(--icon-color, #FFFFFF)"
                fill-rule="evenodd"
                d="M5.929 10.175 10.928 2h2.144l4.998 8.175-1.857.604L13 5.667v10.336h-2V5.667l-3.213 5.112-1.858-.604ZM2 14v7l1 1h18l1-1v-7h-2v6H4v-6H2Z"
                clip-rule="evenodd"
            ></path>
        </symbol>
        <symbol viewBox="0 0 32 12" id="seek_forward">
            <g stroke="none" stroke-width="1" fill="none" fill-rule="evenodd">
                <path
                    d="M7.98991072,2.94342328e-12 L9.08800421,1.75473379 L3.922,4.987 L24.0287199,4.98669863 C29.4421267,4.82246099 31.9665389,6.44570539 32.0565462,11.8478053 L32.059045,12 L30.059045,12 C30.059045,7.56907193 28.493731,6.93272263 24.3465159,6.98795461 L24.0893701,6.98577881 L3.819,6.987 L9.08800421,10.2844356 L7.98991072,12.0391694 L3.10862447e-13,7.03916939 L0.033,6.987 L4.54747351e-13,6.98795461 L4.54747351e-13,4.98795462 L0.021,4.987 L7.98991072,2.94342328e-12 Z"
                    id="back_30-copy-2"
                    fill="var(--icon-color, #171C2B)"
                    transform="translate(16.029522, 6.019585) scale(-1, 1) translate(-16.029522, -6.019585) "
                ></path>
            </g>
        </symbol>
        <symbol viewBox="0 0 32 12" id="seek_back">
            <g stroke="none" stroke-width="1" fill="none" fill-rule="evenodd">
                <path
                    d="M7.98991072,2.94342328e-12 L9.08800421,1.75473379 L3.922,4.987 L24.0287199,4.98669863 C29.4421267,4.82246099 31.9665389,6.44570539 32.0565462,11.8478053 L32.059045,12 L30.059045,12 C30.059045,7.56907193 28.493731,6.93272263 24.3465159,6.98795461 L24.0893701,6.98577881 L3.819,6.987 L9.08800421,10.2844356 L7.98991072,12.0391694 L3.10862447e-13,7.03916939 L0.033,6.987 L4.54747351e-13,6.98795461 L4.54747351e-13,4.98795462 L0.021,4.987 L7.98991072,2.94342328e-12 Z"
                    id="back_30-copy-2"
                    fill="var(--icon-color, #171C2B)"
                ></path>
            </g>
        </symbol>
        <symbol fill="none" id="queue">
            <path
                fill="var(--outline-color, #FFFFFF)"
                fill-rule="evenodd"
                d="m2.679 2 4.32 2.502L7 5.5 2.68 8 2 7.745V2.34L2.679 2ZM10 4h12v2H10V4Zm12 8H2v2h20v-2Zm0 8H2v2h20v-2Z"
                clip-rule="evenodd"
            ></path>
        </symbol>
        <symbol fill="none" viewBox="0 0 60 60" id="player_loading">
            <path
                d="m30 0c16.5685 0 30 13.4315 30 30s-13.4315 30-30 30-30-13.4315-30-30 13.4315-30 30-30zm0 17c7.1797 0 13 5.8203 13 13s-5.8203 13-13 13-13-5.8203-13-13c0-2.367.6311-4.5805 1.7324-6.4883l-3.4648-2c-1.4429 2.4995-2.2676 5.4007-2.2676 8.4883 0 9.3888 7.6112 17 17 17s17-7.6112 17-17-7.6112-17-17-17z"
                fill="var(--circle-color, #FFFFFF)"
            ></path>
        </symbol>
        <symbol viewBox="0 0 60 60" id="play">
            <path
                fill="var(--circle-color, #FFFFFF)"
                d="m30 0c16.5685425 0 30 13.4314575 30 30s-13.4314575 30-30 30-30-13.4314575-30-30 13.4314575-30 30-30zm-6.0903176 18-1.9096824.9362184v22.3877206l1.8461883.676061 18.1538117-10.9635144-.00105-2.1119509z"
                fill-rule="evenodd"
            ></path>
        </symbol>
        <symbol viewBox="0 0 60 60" id="pause">
            <path
                fill="var(--circle-color, #FFFFFF)"
                d="m30 0c16.5685425 0 30 13.4314575 30 30s-13.4314575 30-30 30-30-13.4314575-30-30 13.4314575-30 30-30zm-4 18h-4v24h4zm12 0h-4v24h4z"
                fill-rule="evenodd"
            ></path>
        </symbol>
        <symbol viewBox="0 0 24 24" id="more_menu">
            <path
                fill-rule="evenodd"
                d="M14 4a2 2 0 1 0-4 0 2 2 0 0 0 4 0m0 8a2 2 0 1 0-4 0 2 2 0 0 0 4 0m-2 6a2 2 0 1 1 0 4 2 2 0 0 1 0-4"
                clip-rule="evenodd"
            ></path>
        </symbol>
        <symbol viewBox="0 0 24 24" id="favorited">
            <path
                fill="var(--icon-color, #FFFFFF)"
                fill-rule="evenodd"
                d="m10.089 20.62 1.501 1.502 8.501-8.498c2.962-2.963 2.962-8.113-1.196-10.711-2.593-1.621-5.086-1.05-7.304 1.45-2.218-2.5-4.712-3.071-7.305-1.45C.129 5.51.129 10.66 3.091 13.623a336849.031 336849.031 0 0 0 6.998 6.998Z"
                clip-rule="evenodd"
            ></path>
        </symbol>
        <symbol viewBox="0 0 24 24" id="favorite">
            <path
                fill="var(--icon-color, #FFFFFF)"
                fill-rule="evenodd"
                d="M10.538 20.462 11.999 22l8.027-8.447c2.797-2.945 2.797-8.063-1.13-10.646-1.897-1.249-3.739-1.188-5.446.06-.495.361-.98.823-1.45 1.382a8.41 8.41 0 0 0-1.45-1.383C8.842 1.72 7 1.658 5.103 2.907 1.178 5.49 1.178 10.608 3.974 13.553l5.068 5.335 1.478-1.425-5.095-5.287c-2.065-2.174-1.96-5.797.777-7.598.822-.54 1.697-.534 2.01-.532h.048C9.5 4.046 10.53 5.5 11 6.5h2c.47-1 1.5-2.454 3-2.454h.092c.463-.002.89-.004 1.705.532 2.738 1.8 2.843 5.424.779 7.598L12 19l-1.462 1.462Z"
                clip-rule="evenodd"
            ></path>
        </symbol>
        <symbol viewBox="0 0 24 24" id="down_arrow">
            <path
                fill-rule="evenodd"
                clip-rule="evenodd"
                d="M12.707 17.7071L11.2928 17.7071L2.29282 8.70709L3.70703 7.29288L11.9999 15.5858L20.2928 7.29288L21.707 8.70709L12.707 17.7071Z"
                fill="var(--icon-color, #FFFFFF)"
            ></path>
        </symbol>
        <symbol fill="none" id="comment">
            <path
                fill="var(--icon-color, #FFFFFF)"
                fill-rule="evenodd"
                d="M22 17V2H2v15h7.77l5.73 5H18v-5h4Zm-4-2h2V4H4v11h6.519L16 19.796V15h2Z"
                clip-rule="evenodd"
            ></path>
        </symbol>
        <symbol fill="none" id="back_to_start">
            <path
                fill="var(--icon-color, #FFFFFF)"
                fill-rule="evenodd"
                d="m6 11.252.001 2.623 10.548 6.408L20 18.556V5.12l-3.57-1.335L6 10.126V4H4v16h2v-8.748Zm12 6.068-1.357.68L8 12.75 8 11.25 16.639 6 18 6.509V17.32Z"
                clip-rule="evenodd"
            ></path>
        </symbol>
        <symbol viewBox="0 0 24 24" id="user_following">
            <path
                fill-rule="evenodd"
                d="M11.955 10c-1.654 0-3-1.346-3-3s1.346-3 3-3 3 1.346 3 3-1.346 3-3 3m0-8c-2.757 0-5 2.243-5 5s2.243 5 5 5 5-2.243 5-5-2.243-5-5-5M14 20H4.531l3.424-5.7-2.114-.604-3.84 6.227V20L2 22h12zm2.001-6.245L17.1 12l4.975 3.988h.015v2h-.032l.032.051-4.99 4-1.098-1.755 2.866-2.297L14 17.986l.06-2 4.727.001L16 13.755Z"
                clip-rule="evenodd"
            ></path>
        </symbol>
        <symbol viewBox="0 0 24 24" fill="none" id="user_community">
            <path
                d="M18.5 15.0566C19.4424 13.9385 20.5018 13.6832 21.6035 14.4082C23.3702 15.5702 23.3698 17.8739 22.1113 19.1992L18.5 23L17.8623 22.3291C17.8623 22.3291 16.9779 21.399 16.9756 21.3965C16.2844 20.6689 14.9071 19.2187 14.8887 19.1992C13.6301 17.8739 13.6302 15.5702 15.3965 14.4082C16.4981 13.6834 17.5577 13.9386 18.5 15.0566ZM7.95508 14.3008L4.53125 20H12.5L14.5 22H2L2.00098 20V19.9229L5.84082 13.6953L7.95508 14.3008ZM11.9551 2C14.7119 2.00026 16.9551 4.24316 16.9551 7C16.9551 9.75684 14.7119 11.9997 11.9551 12C9.19808 12 6.95508 9.757 6.95508 7C6.95508 4.243 9.19808 2 11.9551 2ZM11.9551 4C10.3011 4 8.95508 5.346 8.95508 7C8.95508 8.654 10.3011 10 11.9551 10C13.6089 9.99974 14.9551 8.65384 14.9551 7C14.9551 5.34616 13.6089 4.00026 11.9551 4Z"
                fill="#1E2337"
            ></path>
        </symbol>
        <symbol viewBox="0 0 24 24" id="user">
            <path
                fill-rule="evenodd"
                d="M8.955 7c0 1.654 1.346 3 3 3s3-1.346 3-3-1.346-3-3-3-3 1.346-3 3m-2 0c0-2.757 2.243-5 5-5s5 2.243 5 5-2.243 5-5 5-5-2.243-5-5m11.206 6.696L22 19.923V22H2l.001-2v-.077l3.84-6.227 2.114.605L4.531 20H19.47l-3.424-5.7z"
                clip-rule="evenodd"
            ></path>
        </symbol>
        <symbol viewBox="0 0 24 24" id="trending">
            <path
                fill-rule="evenodd"
                d="m9.543 2.755 1.54-.577c3.107 2.151 4.567 5.151 5.153 7.453.457-.654.802-1.253.968-1.582l1.534-.316c1.264 1.057 2.583 2.933 2.848 5.45.268 2.542-.553 5.592-3.313 8.952l-1.546-1.27c2.498-3.04 3.07-5.573 2.87-7.473a6.4 6.4 0 0 0-1.301-3.246c-.507.794-1.212 1.762-2.024 2.565L14.569 12c0-1.428-.735-4.798-3.553-7.33-.656 1.702-1.902 4.12-3.845 6.041-2.674 2.645-3.076 7.005.032 10.078L5.797 22.21c-3.97-3.927-3.425-9.567-.032-12.922 2.26-2.235 3.471-5.319 3.778-6.534M10 17a2 2 0 0 0 2 2c.89 0 1.3-.35 1.488-.652a1.14 1.14 0 0 0 .174-.631 4.8 4.8 0 0 1-2.273-2.457 5 5 0 0 1-.201-.579 1.8 1.8 0 0 0-.638.547c-.352.47-.55 1.127-.55 1.772m2 4c1.51 0 2.6-.65 3.187-1.598.55-.886.63-2.005.207-2.85l-.17-.34-.353-.14c-.95-.38-1.403-1.025-1.635-1.582a3.2 3.2 0 0 1-.234-.95L13 13.495V12.5h-1c-1.349 0-2.383.637-3.05 1.53C8.301 14.894 8 15.987 8 17a4 4 0 0 0 4 4"
                clip-rule="evenodd"
            ></path>
        </symbol>
        <symbol viewBox="0 0 30 30" id="tracklist">
            <path
                fill-rule="evenodd"
                clip-rule="evenodd"
                d="M11.25 7.48242C11.1787 7.49446 11.1077 7.50743 11.0371 7.52148C7.60134 8.20579 5 11.2634 5 14.9395C5.00015 19.1233 8.36634 22.5 12.5 22.5C16.6339 22.4999 19.9998 19.1232 20 14.9395C20 13.5584 19.6336 12.2675 18.9951 11.1562L21.1631 9.91113C22.0137 11.3918 22.5 13.1107 22.5 14.9395C22.4999 17.199 21.7572 19.2857 20.5049 20.9668L28.2266 26.4824L26.7734 28.5176L18.752 22.7881C17.0405 24.1701 14.8685 25 12.5 25C6.96936 25 2.50015 20.4877 2.5 14.9395C2.5 10.0598 5.95452 5.98537 10.5488 5.07031C10.6431 5.05153 10.7378 5.03367 10.833 5.01758L11.25 7.48242ZM23.75 5.625L22.5 8.75L17.5 6.25V15C17.5 17.7614 15.2614 20 12.5 20C9.73858 20 7.5 17.7614 7.5 15C7.5 12.2386 9.73858 10 12.5 10C13.4109 10 14.2645 10.2443 15 10.6699V5.03027L15.0303 5H15C15 3.62 16.12 2.5 17.5 2.5L23.75 5.625ZM12.5 12.5C11.1193 12.5 10 13.6193 10 15C10 16.3807 11.1193 17.5 12.5 17.5C13.8807 17.5 15 16.3807 15 15C15 13.6193 13.8807 12.5 12.5 12.5Z"
            ></path>
        </symbol>
        <symbol viewBox="0 0 24 24" id="stats">
            <path
                fill-rule="evenodd"
                d="M22 2h-2v20h2zM10 8H8v14h2zm-6 8H2v6h2zm10-4h2v10h-2z"
                clip-rule="evenodd"
            ></path>
        </symbol>
        <symbol id="sort">
            <path
                fill-rule="evenodd"
                d="M9 4.943V16H7.001V4.943L5 7 3.5 5.5 6.93 2h2.142L13 5.5 11.5 7zm6 14.114V8h1.998v11.057L19 17l1.5 1.5-3.43 3.5h-2.142L11 18.5l1.5-1.5z"
                clip-rule="evenodd"
            ></path>
        </symbol>
        <symbol viewBox="0 0 24 24" id="settings">
            <path
                fill-rule="evenodd"
                d="M10.688 5.123A7 7 0 0 0 8.065 6.21L5.636 4.222 4.222 5.636l1.988 2.43a7 7 0 0 0-1.087 2.622L2 11v2l3.123.312a7 7 0 0 0 1.087 2.623l-1.988 2.429 1.414 1.414 2.43-1.988a7 7 0 0 0 2.622 1.087L11 22h2l.312-3.123a7 7 0 0 0 2.623-1.087l2.429 1.988 1.414-1.414-1.988-2.43a7 7 0 0 0 1.087-2.622L22 13v-2l-3.123-.312a7 7 0 0 0-1.087-2.623l1.988-2.429-1.414-1.414-2.43 1.988a7 7 0 0 0-2.622-1.087L13 2h-2zM17 12a5 5 0 1 0-10 0 5 5 0 0 0 10 0"
                clip-rule="evenodd"
            ></path>
        </symbol>
        <symbol viewBox="0 0 24 24" id="search">
            <path
                fill-rule="evenodd"
                d="M9.5 2a7.5 7.5 0 0 1 6.209 11.709l6.67 6.67-1.627 1.626-6.612-6.612A7.5 7.5 0 1 1 9.5 2m0 2.2a5.3 5.3 0 1 0 0 10.6 5.3 5.3 0 0 0 0-10.6"
                clip-rule="evenodd"
            ></path>
        </symbol>
        <symbol viewBox="0 0 24 24" id="read">
            <path
                fill-rule="evenodd"
                d="M11.805 5.61a10 10 0 0 1 2.368-1.507c2.03-.93 4.127-1.19 5.878-1.086l.247.02.67.745v1.343h1.78l.75.75v14.641l-.75.75H13.08a6 6 0 0 0-.328.277 3 3 0 0 0-.348.357l-.6-.2-.6.2a2 2 0 0 0-.181-.2l-.167-.157a6 6 0 0 0-.328-.276H.75l-.75-.75V5.874l.75-.75h1.894V3.782l.669-.746.043-.004.204-.015c1.751-.103 3.849.155 5.879 1.086.859.395 1.653.894 2.367 1.508Zm.75 14.156V6.952a8.5 8.5 0 0 1 2.243-1.485c1.535-.704 3.141-.971 4.537-.97l.132.001v13.26l-.175.007c-2.413.114-4.393.675-5.969 1.551l-.245.141a10 10 0 0 0-.447.28l-.043.03h-.033ZM2.643 6.626 1.5 6.624v13.14l5.957.001c-1.166-.335-2.516-.522-4.063-.522l-.75-.75V6.625Zm8.395 13.151v-.01h-.016l-.042-.03q-.314-.21-.693-.42l-.3-.161c-1.525-.784-3.406-1.284-5.669-1.39l-.175-.007V4.498l.132-.002c1.396 0 3.002.267 4.537.97l.341.166a8.4 8.4 0 0 1 1.849 1.27l.053.051v12.836zm9.93-1.283V6.625h1.029v13.14l-5.843.001c1.166-.335 2.516-.522 4.063-.522l.75-.75Z"
                clip-rule="evenodd"
            ></path>
        </symbol>
        <symbol viewBox="0 0 24 24" id="playlist">
            <path
                fill-rule="evenodd"
                d="M12 18c0 1.654 1.346 3 3 3s3-1.346 3-3-1.346-3-3-3-3 1.346-3 3m8-16 3 4v3.396l-3-3.88V18c0 2.757-2.243 5-5 5s-5-2.243-5-5 2.243-5 5-5c1.13 0 2.162.391 3 1.025v-10L18.024 4H18a2 2 0 0 1 2-2M3 6h8v2H3zm3.2-4H3v2h8V2zM3 10h8v2H3z"
                clip-rule="evenodd"
            ></path>
        </symbol>
        <symbol viewBox="0 0 24 24" id="padlock_outline">
            <path
                fill-rule="evenodd"
                d="M7.607 2.634C9.066 1.41 10.805 1 12 1s2.934.409 4.393 1.634C17.891 3.893 19 5.934 19 9h2v14H3V9h2c0-3.066 1.109-5.107 2.607-6.366M17 9c0-2.534-.891-3.993-1.893-4.834C14.066 3.29 12.805 3 12 3s-2.066.291-3.107 1.166C7.891 5.007 7 6.466 7 9zM5 17.25V11h14v10H5zM11 14v4h2v-4z"
                clip-rule="evenodd"
            ></path>
        </symbol>
        <symbol viewBox="0 0 24 24" id="notification">
            <path
                fill-rule="evenodd"
                d="m8.014 14.03.003-.328c.056-3.45 1.01-5.244 2.792-5.683l.08-.02h2.216l.086.02c1.781.439 2.736 2.233 2.792 5.683l.003.329c0 2.613.392 4.607 1.192 5.969H6.822c.799-1.362 1.192-3.356 1.192-5.97M12 4a1.001 1.001 0 0 1 0 2 1.001 1.001 0 0 1 0-2m8.107 15.999-.031-.008c-1.282-.383-2.041-2.173-2.088-5.621l-.002-.34c0-3.96-1.102-6.573-3.356-7.618.228-.423.37-.9.37-1.412 0-1.654-1.345-3-3-3S9 3.346 9 5c0 .513.142.989.369 1.412-2.253 1.045-3.355 3.659-3.355 7.619l-.002.339c-.047 3.448-.806 5.238-2.087 5.62L3.89 20H3v2h18v-2z"
                clip-rule="evenodd"
            ></path>
        </symbol>
        <symbol viewBox="0 0 24 24" id="new_shows">
            <path
                fill-rule="evenodd"
                d="M4 2 2 4v16l2 2h16l2-2V4l-2-2zm0 18V4h16v16zm5-4.225V8.312L9.573 8 15 11.642v.704L9.554 16z"
                clip-rule="evenodd"
            ></path>
        </symbol>
        <symbol viewBox="0 0 24 24" id="my_shows">
            <path
                fill-rule="evenodd"
                d="M10.955 9c-1.654 0-3-1.346-3-3s1.346-3 3-3 3 1.346 3 3-1.346 3-3 3m0-8c-2.757 0-5 2.243-5 5s2.243 5 5 5 5-2.243 5-5-2.243-5-5-5M12 19H3.531l3.424-5.7-2.114-.604-3.84 6.227V19L1 21h11zm4 1.277v-4.554L19.984 18zm6.496-3.145-7-4L14 14v8l1.496.868 7-4z"
                clip-rule="evenodd"
            ></path>
        </symbol>
        <symbol viewBox="0 0 19 22" id="music">
            <path
                fill-rule="evenodd"
                d="M19 0 6 4v10.535A4 4 0 1 0 8 18V5.385l9-2.77v6.92A4 4 0 1 0 19 13zm-4 11a2 2 0 1 1 0 4 2 2 0 0 1 0-4m-9 7a2 2 0 1 0-4 0 2 2 0 0 0 4 0"
                clip-rule="evenodd"
            ></path>
        </symbol>
        <symbol viewBox="0 0 24 24" id="multi_user">
            <path
                fill-rule="evenodd"
                d="M14.79 20.553 13.894 22h-11L2 20.553l2.5-5 1.79.894L4.512 20h7.763L10.5 16.447l1.79-.894zm7.017-3.962L20.895 18h-5l-1-2h4.455l-2.456-5.5 1.826-.818zM8.395 8a3.5 3.5 0 1 1 0 7 3.5 3.5 0 0 1 0-7m0 2a1.5 1.5 0 1 0 0 3 1.5 1.5 0 0 0 0-3m7-8a3.5 3.5 0 1 1 0 7 3.5 3.5 0 0 1 0-7m0 2a1.5 1.5 0 1 0 0 3 1.5 1.5 0 0 0 0-3"
                clip-rule="evenodd"
            ></path>
        </symbol>
        <symbol viewBox="0 0 24 24" id="monetize">
            <path
                fill-rule="evenodd"
                d="M22 4H2v16h20zm-2 12v2h-2l.006-.15A2 2 0 0 1 20 16m0-2-.2.005A4 4 0 0 0 16 18H8l-.005-.2A4 4 0 0 0 4 14v-4l.2-.005A4 4 0 0 0 8 6h8a4 4 0 0 0 3.8 3.995L20 10zm0-6V6h-2l.006.15A2 2 0 0 0 20 8M6 6H4v2a2 2 0 0 0 1.995-1.85zM4 16v2h2a2 2 0 0 0-1.85-1.994zm8-7a3 3 0 1 0 0 6 3 3 0 0 0 0-6m0 2a1 1 0 1 1 0 2 1 1 0 0 1 0-2"
                clip-rule="evenodd"
            ></path>
        </symbol>
        <symbol viewBox="0 0 24 24" id="live">
            <path
                fill-rule="evenodd"
                d="M4 12a8 8 0 1 1 13.67 5.643l1.418 1.41A9.97 9.97 0 0 0 22 12c0-5.523-4.477-10-10-10S2 6.477 2 12a9.97 9.97 0 0 0 2.911 7.054l1.418-1.411A7.97 7.97 0 0 1 4 12m4 0a4 4 0 1 1 6.857 2.8l1.428 1.4a6 6 0 1 0-8.57 0l1.428-1.4A3.98 3.98 0 0 1 8 12m5 1.732A2 2 0 0 0 12 10a2 2 0 0 0-1 3.732V22h2z"
                clip-rule="evenodd"
            ></path>
        </symbol>
        <symbol viewBox="0 0 24 24" id="listen_later">
            <path
                fill-rule="evenodd"
                d="M12.085 21.155c-5.082-.043-8.904-3.89-8.904-8.985 0-5.097 3.822-8.944 8.904-8.987 5.082.043 8.904 3.89 8.904 8.987 0 5.095-3.822 8.942-8.904 8.985m.085-20.147V1l-.043.002-.042.002-.043-.002L12 1v.008C5.616 1.091 1 5.756 1 12.17s4.616 11.079 11 11.161v.008l.043-.002a.6.6 0 0 1 .127.002v-.008c6.383-.082 11-4.746 11-11.161s-4.617-11.079-11-11.162M13 12V6h-2v6.832l.097.094 4.003 4.003 1.415-1.414z"
                clip-rule="evenodd"
            ></path>
        </symbol>
        <symbol viewBox="0 0 24 24" id="library">
            <path
                fill-rule="evenodd"
                d="M6 2H4v20h2zm4 0H8v20h2zm2 0h2v20h-2zm6 0h-2l3 20h2z"
                clip-rule="evenodd"
            ></path>
        </symbol>
        <symbol viewBox="0 0 24 24" id="hosts">
            <path
                fill-rule="evenodd"
                d="M14.837 2a3.65 3.65 0 0 0-3.647 3.648 3.65 3.65 0 0 0 3.647 3.647 3.65 3.65 0 0 0 3.648-3.647A3.65 3.65 0 0 0 14.837 2m0 5.574a1.93 1.93 0 0 1-1.926-1.926c0-1.062.864-1.927 1.926-1.927a1.93 1.93 0 0 1 1.927 1.926 1.93 1.93 0 0 1-1.927 1.927M9.1 7.738a3.65 3.65 0 0 0-3.648 3.647A3.65 3.65 0 0 0 9.1 15.033a3.65 3.65 0 0 0 3.647-3.648A3.65 3.65 0 0 0 9.1 7.738m0 5.573a1.93 1.93 0 0 1-1.927-1.926c0-1.062.865-1.926 1.927-1.926 1.061 0 1.926.864 1.926 1.926A1.93 1.93 0 0 1 9.1 13.311M16.262 22v-1.658l-2.764-4.483-1.798.514 2.346 3.905H4.217l2.347-3.905-1.798-.515L2 20.343V22zM22 16.262v-1.658l-2.718-4.407h-.311l-1.534.438 2.347 3.906h-4.67v1.72z"
                clip-rule="evenodd"
            ></path>
        </symbol>
        <symbol viewBox="0 0 24 24" id="history">
            <path
                fill-rule="evenodd"
                d="M4 2v4h7V2h2v4h7V2h2v20H2V2zm0 6v12h16V8H4m3 9h2v-2H7zm.205-4H7v-2h2v2H7.205M11 17h2v-2h-2zm.206-4H11v-2h2v2h-1.795M15 17h2v-2h-2zm.206-4H15v-2h2v2h-1.795"
                clip-rule="evenodd"
            ></path>
        </symbol>
        <symbol viewBox="0 0 24 24" id="highlight">
            <path
                fill-rule="evenodd"
                d="M13.056 1h-1.793l-3 6.079-6.709.975L1 9.759l4.854 4.732-1.146 6.682 1.451 1.054 6-3.154 6 3.154 1.452-1.054-1.146-6.682 4.854-4.732-.554-1.705-6.71-.975L13.057 1Zm-.896 2.7 2.336 4.736.753.547 5.223.759-3.78 3.684-.287.885.893 5.203-4.673-2.457h-.93L7.02 19.514l.893-5.203-.287-.885-3.78-3.684 5.224-.76.753-.546z"
                clip-rule="evenodd"
            ></path>
        </symbol>
        <symbol viewBox="0 0 25 24" id="feed">
            <path
                fill-rule="evenodd"
                d="M12.02 3.237 4.337 7.086l7.685 4.142 7.685-4.142-7.685-3.85Zm9.837 2.69L12.02 1 2.185 5.926 0 7.021l2.151 1.16 9.87 5.319 9.87-5.32 2.15-1.16-2.184-1.094ZM12.02 16.363 24 10v2l-11.98 6.636L0 12v-2l12.02 6.364ZM24 15l-11.98 6.364L0 15v2l12.02 6.636L24 17z"
                clip-rule="evenodd"
            ></path>
        </symbol>
        <symbol viewBox="0 0 24 24" id="favorited">
            <path
                fill-rule="evenodd"
                fill="var(--icon-color, #171C2B)"
                d="m10.089 20.62 1.501 1.502 8.501-8.498c2.962-2.963 2.962-8.113-1.196-10.711-2.593-1.621-5.086-1.05-7.304 1.45-2.218-2.5-4.712-3.071-7.305-1.45C.129 5.51.129 10.66 3.091 13.623z"
                clip-rule="evenodd"
            ></path>
        </symbol>
        <symbol viewBox="0 0 24 24" id="favorite">
            <path
                fill="var(--icon-color, #FFFFFF)"
                fill-rule="evenodd"
                d="m9.98 16.964-4.895-4.896c-2.038-2.038-2.038-5.512.805-7.29 1.69-1.057 3.378-.62 5.076 1.561.013.017 2.126-.005 2.135-.016 1.696-2.167 3.38-2.599 5.066-1.545 2.844 1.778 2.844 5.252.806 7.29l-6.944 6.944-1.502 1.609 1.5 1.5 8.502-8.497C23.49 10.66 23.49 5.51 19.333 2.913c-2.593-1.621-5.086-1.05-7.304 1.45-2.218-2.5-4.712-3.071-7.305-1.45C.567 5.51.567 10.66 3.529 13.623l4.913 4.914c.005.005 1.542-1.57 1.539-1.573Z"
                clip-rule="evenodd"
            ></path>
        </symbol>
        <symbol fill="none" viewBox="0 0 24 24" id="email">
            <path
                fill="var(--icon-color, #171C2B)"
                d="M22 6v12l-2 2H4l-2-2V6l2-2h16l2 2Zm-9.4 6.8h-1.2L4 7.249V18h16V7.249l-7.4 5.55Zm-.6-2.05L18.334 6H5.666L12 10.75Z"
            ></path>
        </symbol>
        <symbol id="devices">
            <path
                d="M12 16.5a1.5 1.5 0 0 1-1.5 1.5h-9A1.5 1.5 0 0 1 0 16.5v-15A1.5 1.5 0 0 1 1.5 0h9A1.5 1.5 0 0 1 12 1.5zm-10-1a.5.5 0 0 0 .5.5h6.988a.5.5 0 0 0 .5-.5V14H2zm7.99-13a.5.5 0 0 0-.5-.5H2.5a.5.5 0 0 0-.5.5V4h7.99zM2 6v6h7.99V6z"
            ></path>
        </symbol>
        <symbol viewBox="0 0 24 24" id="dashboard">
            <path
                fill-rule="evenodd"
                d="M4 4h4.889v4.889H4zm-2 6.889V2h8.889v8.889zm2 4.222h4.889v4.89H4zm-2 6.89v-8.89h8.889v8.89zM20 4h-4.889v4.889H20zm-6.889-2v8.889H22V2zm4.444 18a2.444 2.444 0 1 1 0-4.889 2.444 2.444 0 0 1 0 4.89Zm-4.444-2.444a4.444 4.444 0 1 1 8.889 0 4.444 4.444 0 0 1-8.889 0"
                clip-rule="evenodd"
            ></path>
        </symbol>
        <symbol viewBox="0 0 24 24" id="credit_card">
            <path
                fill-rule="evenodd"
                clip-rule="evenodd"
                d="M4 5L2 7V17L4 19H20L22 17V7L20 5H4ZM4 9V7H20V9H4ZM4 11V17H20V11H4Z"
            ></path>
        </symbol>
        <symbol viewBox="0 0 24 24" id="create">
            <path
                fill-rule="evenodd"
                d="M3.181 12.17c0 5.095 3.822 8.942 8.904 8.985 5.082-.043 8.904-3.89 8.904-8.985 0-5.097-3.822-8.944-8.904-8.987-5.082.043-8.904 3.89-8.904 8.987M12.17 1v.008c6.383.083 11 4.748 11 11.162s-4.617 11.079-11 11.161v.008l-.043-.002a.6.6 0 0 0-.127.002v-.008C5.616 23.249 1 18.585 1 12.17S5.616 1.091 12 1.008V1l.043.002.042.002.042-.002zM11 11V7h2v4h4v2h-4v4h-2v-4H7v-2z"
                clip-rule="evenodd"
            ></path>
        </symbol>
        <symbol viewBox="0 0 24 24" id="close">
            <path
                fill-rule="evenodd"
                d="m18.887 3-6.923 7.762-6.887-7.759L3 3.918l6.672 7.5v1.135l-6.645 7.495 2.052.947 6.885-7.786L18.886 21l2.091-.904-6.687-7.543v-1.135L21 3.875z"
                clip-rule="evenodd"
            ></path>
        </symbol>
        <symbol viewBox="0 0 24 24" id="burger">
            <path
                fill-rule="evenodd"
                d="M2 5h20v2H2zm0 6h20v2H2zm20 6H2v2h20z"
                clip-rule="evenodd"
            ></path>
        </symbol>
        <symbol viewBox="0 0 25 24" id="arrow">
            <path
                fill-rule="evenodd"
                d="M22 11.001H6.944l6.044-5.313-.782-1.757L4 10.928v2.142l8.205 6.999.782-1.757-6.044-5.314H22z"
            ></path>
        </symbol>
    </defs>
</svg>
