<svg version="1.1" xmlns="http://www.w3.org/2000/svg" style="display: block;" viewBox="0 0 2048 448" width="1935" height="423" preserveAspectRatio="none">
<defs>
	<linearGradient id="Gradient1" gradientUnits="userSpaceOnUse" x1="247.327" y1="149.817" x2="233.049" y2="131.132">
		<stop class="stop0" offset="0" stop-opacity="1" stop-color="rgb(255,181,3)"/>
		<stop class="stop1" offset="1" stop-opacity="1" stop-color="rgb(255,205,9)"/>
	</linearGradient>
</defs>
<path transform="translate(0,0)" fill="rgb(2,1,1)" d="M 0 0 L 2048 0 L 2048 448 L 0 448 L 0 0 z"/>
<path transform="translate(0,0)" fill="rgb(2,1,1)" d="M 26.2403 12.1688 C 34.8735 11.4323 43.5573 11.5215 52.1736 12.4352 C 56.7621 13.8566 63.3706 17.2762 67.2075 20.1439 C 80.7921 27.7486 104.026 39.7281 116.3 47.5218 L 129.964 55.1792 C 128.324 60.4766 128.795 86.3198 128.84 93.0564 C 126.303 95.6795 108.219 104.186 104.12 106.156 C 99.755 108.255 92.1506 108.845 88.3453 111.844 C 90.0825 114.341 94.8115 121.444 96.5587 123.449 L 99.4002 128.054 C 105.079 135.369 125.836 163.349 129.186 171.037 C 130.123 172.957 131.563 176.478 133.115 177.693 C 132.205 181.415 130.686 186.666 130.738 190.36 C 132.243 188.126 131.535 186.803 134.555 184.394 L 134.461 185.111 L 136.379 183.553 L 136.501 178.059 C 147.491 162.706 156.286 151.256 168.056 136.708 L 167.645 162.649 C 177.128 167.685 187.852 173.668 197.424 178.244 C 194.61 183.066 189.828 187.835 185.372 191.179 L 195.303 197.128 C 195.081 204.474 193.57 230.946 194.333 236.324 C 193.586 240.659 193.115 243.191 193.112 247.669 C 192.706 260.809 192.905 274.033 187.284 286.164 C 174.147 305.192 163.749 308.106 140.979 308.761 L 138.799 308.828 C 135.148 308.593 131.494 308.403 127.839 308.259 C 129.13 312.112 128.054 319.153 127.402 323.287 L 128.212 325.401 C 127.965 339.1 126.474 379.799 127.583 391.621 C 107.687 402.751 88.3877 414.393 68.3661 425.498 C 55.9616 432.038 45.6451 436.114 31.0975 433.844 C 25.6119 431.742 21.2397 429.636 17.071 425.346 C 13.3063 421.493 10.8604 416.546 10.0849 411.215 C 8.72877 401.773 9.42335 361.608 9.33853 349.574 C 9.04982 300.988 9.01544 252.401 9.2354 203.815 L 9.15152 193.284 L 9.84882 193.113 C 10.0166 189.259 17.2812 180.741 19.8733 177.365 C 23.8712 169.269 35.2616 152.848 40.9725 142.476 C 43.0215 139.603 43.3672 138.571 44.5684 135.245 C 36.6282 129.334 18.5153 105.225 9.7389 104.537 C 9.66525 87.0111 9.50361 69.4609 9.59137 51.9372 C 9.66452 37.3293 8.20729 28.4779 18.8245 17.2299 C 20.355 15.8803 24.3553 13.4012 26.2403 12.1688 z"/>
<path transform="translate(0,0)" fill="rgb(75,35,227)" d="M 19.8733 177.365 C 23.2323 180.894 27.0493 184.726 30.1425 188.438 L 30.7106 188.746 C 34.79 193.524 65.0324 228.252 66.7699 232.095 L 66.755 232.868 C 70.5897 236.907 74.113 240.634 77.7185 244.89 C 79.9785 247.097 86.554 253.772 88.8584 255.354 C 89.3302 281.38 96.4369 306.761 127.839 308.259 C 129.13 312.112 128.054 319.153 127.402 323.287 L 128.212 325.401 C 127.965 339.1 126.474 379.799 127.583 391.621 C 107.687 402.751 88.3877 414.393 68.3661 425.498 C 55.9616 432.038 45.6451 436.114 31.0975 433.844 C 25.6119 431.742 21.2397 429.636 17.071 425.346 C 13.3063 421.493 10.8604 416.546 10.0849 411.215 C 8.72877 401.773 9.42335 361.608 9.33853 349.574 C 9.04982 300.988 9.01544 252.401 9.2354 203.815 L 9.15152 193.284 L 9.84882 193.113 C 10.0166 189.259 17.2812 180.741 19.8733 177.365 z"/>
<path transform="translate(0,0)" fill="rgb(70,0,150)" d="M 9.2354 203.815 C 11.0823 232.587 9.03358 265.513 10.0358 294.592 C 10.4074 305.376 9.528 322.59 11.2989 332.892 C 26.9805 339.425 54.37 340.146 62.397 321.609 C 63.5837 322.315 65.7249 323.497 66.7592 324.258 L 67.2786 324.889 C 73.2201 328.192 92.4716 349.003 98.511 354.815 C 105.354 347.638 122.319 330.913 127.402 323.287 L 128.212 325.401 C 127.965 339.1 126.474 379.799 127.583 391.621 C 107.687 402.751 88.3877 414.393 68.3661 425.498 C 55.9616 432.038 45.6451 436.114 31.0975 433.844 C 25.6119 431.742 21.2397 429.636 17.071 425.346 C 13.3063 421.493 10.8604 416.546 10.0849 411.215 C 8.72877 401.773 9.42335 361.608 9.33853 349.574 C 9.04982 300.988 9.01544 252.401 9.2354 203.815 z"/>
<path transform="translate(0,0)" fill="rgb(70,0,150)" d="M 127.402 323.287 L 128.212 325.401 C 127.965 339.1 126.474 379.799 127.583 391.621 C 107.687 402.751 88.3877 414.393 68.3661 425.498 C 68.0539 418.881 69.2002 394.081 66.5021 390.066 C 70.709 388.167 94.4309 359.876 98.511 354.815 C 105.354 347.638 122.319 330.913 127.402 323.287 z"/>
<path transform="translate(0,0)" fill="rgb(117,0,124)" d="M 67.2786 324.889 C 73.2201 328.192 92.4716 349.003 98.511 354.815 C 94.4309 359.876 70.709 388.167 66.5021 390.066 L 65.8147 389.231 C 66.9695 383.706 67.4066 333.203 67.2786 324.889 z"/>
<path transform="translate(0,0)" fill="rgb(10,0,96)" d="M 66.5021 390.066 C 69.2002 394.081 68.0539 418.881 68.3661 425.498 C 55.9616 432.038 45.6451 436.114 31.0975 433.844 C 35.4897 432.977 63.2904 395.906 66.5021 390.066 z"/>
<path transform="translate(0,0)" fill="rgb(75,35,227)" d="M 67.4903 236.286 C 70.6681 239.484 73.4975 243.404 77.7185 244.89 C 79.9785 247.097 86.554 253.772 88.8584 255.354 C 89.3302 281.38 96.4369 306.761 127.839 308.259 C 129.13 312.112 128.054 319.153 127.402 323.287 C 122.319 330.913 105.354 347.638 98.511 354.815 C 92.4716 349.003 73.2201 328.192 67.2786 324.889 L 66.7592 324.258 C 66.67 294.495 67.7002 266.236 67.4903 236.286 z"/>
<path transform="translate(0,0)" fill="rgb(85,24,245)" d="M 66.755 232.868 C 70.5897 236.907 74.113 240.634 77.7185 244.89 C 73.4975 243.404 70.6681 239.484 67.4903 236.286 C 67.7002 266.236 66.67 294.495 66.7592 324.258 C 65.7249 323.497 63.5837 322.315 62.397 321.609 C 55.8247 317.22 24.9712 280.258 17.2797 271.675 C 30.5605 261.674 53.8657 240.379 66.755 232.868 z"/>
<path transform="translate(0,0)" fill="rgb(31,171,229)" d="M 19.8733 177.365 C 23.2323 180.894 27.0493 184.726 30.1425 188.438 C 24.795 189.743 15.0883 192.363 9.84882 193.113 C 10.0166 189.259 17.2812 180.741 19.8733 177.365 z"/>
<path transform="translate(0,0)" fill="rgb(24,207,90)" d="M 26.2403 12.1688 C 34.8735 11.4323 43.5573 11.5215 52.1736 12.4352 C 56.7621 13.8566 63.3706 17.2762 67.2075 20.1439 C 80.7921 27.7486 104.026 39.7281 116.3 47.5218 L 129.964 55.1792 C 128.324 60.4766 128.795 86.3198 128.84 93.0564 C 126.303 95.6795 108.219 104.186 104.12 106.156 C 99.755 108.255 92.1506 108.845 88.3453 111.844 L 84.7478 108.06 L 83.512 109.017 C 81.0165 105.783 72.1933 92.5676 69.9704 91.582 C 66.4367 96.2839 70.2159 111.001 67.2865 119.429 C 67.1399 110.389 67.2658 98.8697 66.7413 90.0364 C 56.7123 106.596 52.8798 119.982 44.5684 135.245 C 36.6282 129.334 18.5153 105.225 9.7389 104.537 C 9.66525 87.0111 9.50361 69.4609 9.59137 51.9372 C 9.66452 37.3293 8.20729 28.4779 18.8245 17.2299 C 20.355 15.8803 24.3553 13.4012 26.2403 12.1688 z"/>
<path transform="translate(0,0)" fill="rgb(98,242,84)" d="M 116.3 47.5218 L 129.964 55.1792 C 128.324 60.4766 128.795 86.3198 128.84 93.0564 C 126.303 95.6795 108.219 104.186 104.12 106.156 C 99.755 108.255 92.1506 108.845 88.3453 111.844 L 84.7478 108.06 C 83.4578 105.721 71.4203 90.0459 69.1681 87.0376 C 77.2025 76.6124 110.006 55.056 116.3 47.5218 z"/>
<path transform="translate(0,0)" fill="rgb(96,246,66)" d="M 67.2075 20.1439 C 80.7921 27.7486 104.026 39.7281 116.3 47.5218 C 110.006 55.056 77.2025 76.6124 69.1681 87.0376 C 65.9571 83.0599 67.0663 28.302 67.2075 20.1439 z"/>
<path transform="translate(0,0)" fill="rgb(98,242,84)" d="M 26.2403 12.1688 C 34.8735 11.4323 43.5573 11.5215 52.1736 12.4352 C 45.2063 13.4973 37.8129 13.1209 30.7422 12.9675 C 40.4558 25.196 37.2516 26.8064 39.1851 42.1675 C 39.382 43.7318 45.9401 49.5452 45.838 52.5369 C 40.2226 47.7457 24.5674 24.9661 18.8245 17.2299 C 20.355 15.8803 24.3553 13.4012 26.2403 12.1688 z"/>
<path transform="translate(0,0)" fill="rgb(98,242,84)" d="M 67.2865 119.429 C 70.2159 111.001 66.4367 96.2839 69.9704 91.582 C 72.1933 92.5676 81.0165 105.783 83.512 109.017 L 84.7478 108.06 L 88.3453 111.844 C 90.0825 114.341 94.8115 121.444 96.5587 123.449 L 99.4002 128.054 C 105.079 135.369 125.836 163.349 129.186 171.037 C 130.123 172.957 131.563 176.478 133.115 177.693 C 128.803 177.884 125.837 179.976 121.617 179.248 L 121.931 166.55 C 114.394 163.762 103.349 157.655 96.478 153.459 L 91.362 151.557 L 90.2934 152.398 C 89.1425 165.66 90.31 180.11 89.6976 193.435 L 89.3782 232.502 L 87.3037 231.965 L 66.7699 232.095 C 65.0324 228.252 34.79 193.524 30.7106 188.746 L 30.1425 188.438 C 27.0493 184.726 23.2323 180.894 19.8733 177.365 C 23.8712 169.269 35.2616 152.848 40.9725 142.476 C 43.0215 139.603 43.3672 138.571 44.5684 135.245 C 52.8798 119.982 56.7123 106.596 66.7413 90.0364 C 67.2658 98.8697 67.1399 110.389 67.2865 119.429 z"/>
<path transform="translate(0,0)" fill="rgb(36,224,190)" d="M 66.7413 90.0364 C 67.2658 98.8697 67.1399 110.389 67.2865 119.429 C 67.212 128.742 66.29 156.228 64.0665 164.294 C 62.3766 162.229 62.4827 158.76 62.2532 155.954 C 60.4868 156.974 61.0204 156.424 60.2332 158.391 C 65.5257 176.053 67.0132 168.483 66.8379 188.509 C 60.9813 188.429 34.5927 187.829 30.7106 188.746 L 30.1425 188.438 C 27.0493 184.726 23.2323 180.894 19.8733 177.365 C 23.8712 169.269 35.2616 152.848 40.9725 142.476 C 43.0215 139.603 43.3672 138.571 44.5684 135.245 C 52.8798 119.982 56.7123 106.596 66.7413 90.0364 z"/>
<path transform="translate(0,0)" fill="rgb(27,199,179)" d="M 66.8379 188.509 C 66.8747 191.742 67.1393 198.677 66.695 201.594 C 66.184 207.385 64.0407 220.459 67.7185 224.38 C 71.0242 227.904 82.4191 231.308 87.3037 231.965 L 66.7699 232.095 C 65.0324 228.252 34.79 193.524 30.7106 188.746 C 34.5927 187.829 60.9813 188.429 66.8379 188.509 z"/>
<path transform="translate(0,0)" fill="rgb(24,207,90)" d="M 68.4939 223.058 C 75.8849 210.409 76.744 209.672 87.2335 199.617 L 88.2652 202.002 C 88.7108 199.141 89.1883 196.285 89.6976 193.435 L 89.3782 232.502 L 87.3037 231.965 C 82.4191 231.308 71.0242 227.904 67.7185 224.38 C 64.0407 220.459 66.184 207.385 66.695 201.594 C 69.1227 208.593 68.5099 215.615 68.4939 223.058 z"/>
<path transform="translate(0,0)" fill="rgb(96,246,66)" d="M 99.4002 128.054 C 105.079 135.369 125.836 163.349 129.186 171.037 C 130.123 172.957 131.563 176.478 133.115 177.693 C 128.803 177.884 125.837 179.976 121.617 179.248 L 121.931 166.55 C 114.394 163.762 103.349 157.655 96.478 153.459 C 101.426 151.233 111.606 162.138 117.803 162.731 L 118.897 161.402 C 118.114 150.572 100.915 139.858 99.4002 128.054 z"/>
<path transform="translate(0,0)" fill="rgb(238,227,7)" d="M 136.501 178.059 C 147.491 162.706 156.286 151.256 168.056 136.708 L 167.645 162.649 C 177.128 167.685 187.852 173.668 197.424 178.244 C 194.61 183.066 189.828 187.835 185.372 191.179 C 179.686 188.387 173.686 185.301 167.974 182.655 C 167.481 193.477 166.925 220.41 165.54 229.809 L 164.997 239.981 C 159.589 241.436 160.215 241.799 156.735 245.526 L 156.51 245.772 C 156.275 247.655 155.748 251.093 155.656 252.875 C 150.241 247.846 141.507 237.55 136.662 231.859 L 130.672 231.822 C 129.379 228.348 129.789 194.21 130.738 190.36 C 132.243 188.126 131.535 186.803 134.555 184.394 L 134.461 185.111 L 136.379 183.553 L 136.501 178.059 z"/>
<path transform="translate(0,0)" fill="rgb(176,174,22)" d="M 161.179 231.234 L 165.54 229.809 L 164.997 239.981 C 159.589 241.436 160.215 241.799 156.735 245.526 L 156.51 245.772 C 156.275 247.655 155.748 251.093 155.656 252.875 C 150.241 247.846 141.507 237.55 136.662 231.859 C 143.351 231.173 154.489 230.407 161.179 231.234 z"/>
<path transform="translate(0,0)" fill="rgb(244,191,2)" d="M 161.179 231.234 L 165.54 229.809 L 164.997 239.981 C 159.589 241.436 160.215 241.799 156.735 245.526 L 156.51 245.772 C 157.984 239.684 158.743 236.991 161.179 231.234 z"/>
<path transform="translate(0,0)" fill="rgb(132,100,94)" d="M 130.672 231.822 L 136.662 231.859 C 141.507 237.55 150.241 247.846 155.656 252.875 L 156.032 253.693 C 149.762 260.728 144.185 273.035 137.227 281.85 L 128.147 279.936 C 129.608 272.401 129.895 241.546 130.105 232.123 L 130.672 231.822 z"/>
<path transform="translate(0,0)" fill="rgb(24,207,90)" d="M 121.617 179.248 C 125.837 179.976 128.803 177.884 133.115 177.693 C 132.205 181.415 130.686 186.666 130.738 190.36 C 129.789 194.21 129.379 228.348 130.672 231.822 L 130.105 232.123 L 119.927 232.216 C 120.624 215.112 120.235 196.114 121.617 179.248 z"/>
<path transform="translate(0,0)" fill="rgb(64,104,181)" d="M 119.927 232.216 L 130.105 232.123 C 129.895 241.546 129.608 272.401 128.147 279.936 C 114.034 272.256 119.186 246.453 119.927 232.216 z"/>
<path transform="translate(0,0)" fill="rgb(226,7,81)" d="M 156.032 253.693 C 158.46 255.935 161.78 258.831 163.893 261.246 C 161.592 278.279 154.255 282.93 137.227 281.85 C 144.185 273.035 149.762 260.728 156.032 253.693 z"/>
<path transform="translate(0,0)" fill="rgb(64,104,181)" d="M 87.3037 231.965 L 89.3782 232.502 L 88.8584 255.354 C 86.554 253.772 79.9785 247.097 77.7185 244.89 C 74.113 240.634 70.5897 236.907 66.755 232.868 L 66.7699 232.095 L 87.3037 231.965 z"/>
<path transform="translate(0,0)" fill="rgb(254,167,2)" d="M 156.51 245.772 L 156.735 245.526 C 160.215 241.799 159.589 241.436 164.997 239.981 C 164.632 246.786 164.029 254.511 163.893 261.246 C 161.78 258.831 158.46 255.935 156.032 253.693 L 155.656 252.875 C 155.748 251.093 156.275 247.655 156.51 245.772 z"/>
<path transform="translate(0,0)" fill="rgb(254,254,254)" d="M 513.781 106.875 L 588.674 106.887 C 626.064 107.057 658.837 113.633 685.971 141.117 C 730.346 186.063 727.652 252.109 683.143 295.721 C 633.881 341.765 576.746 332.937 513.804 333.078 L 513.781 106.875 z"/>
<path transform="translate(0,0)" fill="rgb(2,1,1)" d="M 567.814 146.492 C 574.95 146.384 582.088 146.392 589.224 146.517 C 612.862 147.147 634.948 152.784 651.759 170.578 C 663.919 183.553 670.377 200.858 669.691 218.628 C 669.025 241.318 659.336 257.033 643.294 272.113 C 616.719 293.008 592.825 293.146 561.001 293.15 L 560.994 202.345 C 560.942 186.046 560.242 163.774 561.251 148.113 C 563.197 146.077 564.226 146.714 567.814 146.492 z"/>
<path transform="translate(0,0)" fill="rgb(254,254,254)" d="M 1304.11 106.813 L 1346.5 106.759 C 1347.15 136.401 1346.78 167.196 1346.84 196.935 C 1347.16 196.524 1347.48 196.116 1347.8 195.71 C 1360.14 180.195 1376.58 169.813 1396.48 167.605 C 1416.49 165.409 1436.55 171.321 1452.17 184.019 C 1492.05 216.135 1492.13 272.957 1460.95 311.372 C 1459.52 312.839 1458.06 314.281 1456.58 315.697 C 1441.75 329.843 1420.54 338.512 1399.98 337.914 C 1375.37 337.198 1360.89 323.886 1345.1 307.254 L 1345.04 333.085 L 1304.48 333.011 C 1303.57 257.959 1304.21 181.957 1304.11 106.813 z"/>
<path transform="translate(0,0)" fill="rgb(2,1,1)" d="M 1387.15 205.346 C 1446.29 199.866 1458.01 290.712 1396.85 299.733 C 1371.41 302.243 1351.36 280.656 1347.81 256.807 C 1345.95 244.444 1349.07 231.848 1356.49 221.781 C 1364.43 211.155 1374.53 207.163 1387.15 205.346 z"/>
<path transform="translate(0,0)" fill="rgb(2,1,1)" d="M 245.19 119.729 L 286.595 142.713 C 291.535 145.457 303.195 151.552 307.395 154.489 C 312.109 156.803 346.082 174.999 348.289 177.426 C 351.605 178.982 355.259 180.596 358.368 182.479 L 365.285 186.113 C 381.949 195.303 409.019 206.313 397.539 230.601 C 392.423 240.499 381.882 244.794 372.098 250.104 L 290.762 297.298 L 243.805 324.43 C 229.821 332.685 215.777 340.839 201.674 348.891 C 202.275 332.559 202.093 315.115 202.195 298.697 L 202.48 287.05 C 198.564 287.207 190.164 288.233 187.284 286.164 C 192.905 274.033 192.706 260.809 193.112 247.669 C 193.115 243.191 193.586 240.659 194.333 236.324 C 193.57 230.946 195.081 204.474 195.303 197.128 L 185.372 191.179 C 189.828 187.835 194.61 183.066 197.424 178.244 C 187.852 173.668 177.128 167.685 167.645 162.649 L 168.056 136.708 C 168.01 134.468 167.614 131.915 168.998 130.282 L 170.899 130.519 L 215.906 153.83 C 224.705 142.996 237.407 130.763 245.19 119.729 z"/>
<path transform="translate(0,0)" fill="rgb(249,7,18)" d="M 348.289 177.426 C 351.605 178.982 355.259 180.596 358.368 182.479 L 365.285 186.113 C 381.949 195.303 409.019 206.313 397.539 230.601 C 392.423 240.499 381.882 244.794 372.098 250.104 L 290.762 297.298 L 243.805 324.43 C 229.821 332.685 215.777 340.839 201.674 348.891 C 202.275 332.559 202.093 315.115 202.195 298.697 C 209.099 293.074 218.749 283.68 225.962 277.382 C 225.855 284.67 224.86 294.406 224.317 301.845 C 233.839 297.572 246.294 290.693 255.812 285.791 C 255.849 277.225 256.52 268.185 257.016 259.596 C 257.67 249.478 258.419 238.261 259.522 228.232 L 260.69 230.002 C 266.044 230.793 289.299 229.861 296.699 229.846 C 301.816 227.803 317.968 227.514 323.755 227.51 C 335.506 217.462 348.949 198.87 354.334 183.435 C 354.426 183.172 353.805 182.795 353.472 182.547 C 351.301 180.936 349.975 179.5 348.289 177.426 z"/>
<path transform="translate(0,0)" fill="rgb(253,59,0)" d="M 348.289 177.426 C 351.605 178.982 355.259 180.596 358.368 182.479 C 353.849 190.095 348.189 199.089 344.591 207.03 L 345.341 208.252 C 350.515 215.458 355.439 222.84 360.103 230.386 C 348.892 230.196 335.303 229.62 324.274 229.95 C 309.555 247.702 293.111 264.85 277.772 282.217 C 273.495 279.014 262.177 264.675 257.016 259.596 C 257.67 249.478 258.419 238.261 259.522 228.232 L 260.69 230.002 C 266.044 230.793 289.299 229.861 296.699 229.846 C 301.816 227.803 317.968 227.514 323.755 227.51 C 335.506 217.462 348.949 198.87 354.334 183.435 C 354.426 183.172 353.805 182.795 353.472 182.547 C 351.301 180.936 349.975 179.5 348.289 177.426 z"/>
<path transform="translate(0,0)" fill="rgb(246,35,35)" d="M 277.641 282.913 C 281.607 287.184 287.213 292.889 290.762 297.298 L 243.805 324.43 C 254.216 309.466 265.864 296.882 277.641 282.913 z"/>
<path transform="translate(0,0)" fill="rgb(246,35,35)" d="M 369.826 229.531 C 375.229 229.999 390.265 230.541 395.555 229.684 L 397.539 230.601 C 392.423 240.499 381.882 244.794 372.098 250.104 C 369.928 247.636 361.89 233.959 360.739 230.797 C 363.765 230.351 366.794 229.929 369.826 229.531 z"/>
<path transform="translate(0,0)" fill="rgb(246,35,35)" d="M 358.368 182.479 L 365.285 186.113 C 360.441 194.336 354.614 205.209 345.341 208.252 L 344.591 207.03 C 348.189 199.089 353.849 190.095 358.368 182.479 z"/>
<path transform="translate(0,0)" fill="rgb(253,59,0)" d="M 369.826 229.531 C 375.511 227.623 388.777 226.752 394.578 228.252 L 395.555 229.684 C 390.265 230.541 375.229 229.999 369.826 229.531 z"/>
<path transform="translate(0,0)" fill="rgb(254,127,4)" d="M 245.19 119.729 L 286.595 142.713 C 291.535 145.457 303.195 151.552 307.395 154.489 C 312.109 156.803 346.082 174.999 348.289 177.426 C 349.975 179.5 351.301 180.936 353.472 182.547 C 353.805 182.795 354.426 183.172 354.334 183.435 C 348.949 198.87 335.506 217.462 323.755 227.51 C 317.968 227.514 301.816 227.803 296.699 229.846 C 289.299 229.861 266.044 230.793 260.69 230.002 L 259.522 228.232 L 260.889 207.729 C 273.047 214.487 284.824 220.38 297.29 226.572 C 297.658 216.347 297.893 206.118 297.995 195.887 C 288.881 191.226 277.837 185.923 269.202 180.693 C 265.277 179.716 222.392 157.209 215.906 153.83 C 224.705 142.996 237.407 130.763 245.19 119.729 z"/>
<path transform="translate(0,0)" fill="url(#Gradient1)" d="M 245.19 119.729 L 286.595 142.713 C 291.535 145.457 303.195 151.552 307.395 154.489 C 302.496 155.435 273.856 137.944 267.618 134.392 C 252.934 143.536 243.505 146.692 234.495 161.496 C 237.826 162.935 270.239 179.613 270.587 180.336 L 269.202 180.693 C 265.277 179.716 222.392 157.209 215.906 153.83 C 224.705 142.996 237.407 130.763 245.19 119.729 z"/>
<path transform="translate(0,0)" fill="rgb(246,35,35)" d="M 211.708 240.849 L 227.049 258.02 L 225.962 277.382 C 218.749 283.68 209.099 293.074 202.195 298.697 L 202.48 287.05 C 198.564 287.207 190.164 288.233 187.284 286.164 C 192.905 274.033 192.706 260.809 193.112 247.669 C 194.682 247.485 209.169 241.822 211.708 240.849 z"/>
<path transform="translate(0,0)" fill="rgb(254,127,4)" d="M 197.424 178.244 C 203.416 181.517 228.929 194.01 230.706 198.044 L 230.394 199.74 C 223.526 207.188 208.892 224.778 202.317 230.85 L 211.708 240.849 C 209.169 241.822 194.682 247.485 193.112 247.669 C 193.115 243.191 193.586 240.659 194.333 236.324 C 193.57 230.946 195.081 204.474 195.303 197.128 L 185.372 191.179 C 189.828 187.835 194.61 183.066 197.424 178.244 z"/>
<path transform="translate(0,0)" fill="rgb(253,59,0)" d="M 194.333 236.324 C 195.85 240.267 193.579 240.854 196.035 244.201 C 198.662 244.248 199.707 244.435 201.868 242.846 C 202.534 239.799 201.057 236.883 200.061 233.551 L 202.317 230.85 L 211.708 240.849 C 209.169 241.822 194.682 247.485 193.112 247.669 C 193.115 243.191 193.586 240.659 194.333 236.324 z"/>
<path transform="translate(0,0)" fill="rgb(254,167,2)" d="M 202.317 230.85 C 208.892 224.778 223.526 207.188 230.394 199.74 C 229.359 218.634 228.597 239.304 227.049 258.02 L 211.708 240.849 L 202.317 230.85 z"/>
<path transform="translate(0,0)" fill="rgb(254,254,254)" d="M 1103.12 106.97 L 1151.12 107.097 L 1151.25 151.25 L 1151.46 210.007 C 1151.54 237.523 1153.32 258.799 1142.1 284.934 C 1117.88 341.328 1030 355.97 986.624 312.632 C 976.537 302.519 969.235 289.97 965.426 276.204 C 959.582 254.396 961.403 224.899 961.312 201.608 L 961.134 107.132 L 1008.21 107.131 L 1008.19 201.514 C 1008.16 238.513 1001.32 296.148 1054.2 295.767 C 1111.06 295.357 1103.5 239.615 1103.33 201.477 L 1103.12 106.97 z"/>
<path transform="translate(0,0)" fill="rgb(254,254,254)" d="M 1559.28 167.402 C 1560.95 167.232 1562.62 167.141 1564.29 167.13 C 1586.48 166.856 1614.01 171.48 1630.19 187.867 C 1655.42 213.414 1652.1 244.948 1652.04 277.496 C 1651.96 296.01 1652.01 314.525 1652.2 333.039 L 1612.66 332.98 C 1612.03 326.827 1612.05 319.708 1611.94 313.448 C 1610 315.694 1607.98 317.863 1605.87 319.951 C 1581.63 343.645 1530.51 344.004 1506.24 319.095 C 1503.68 315.57 1501.79 312.646 1500 308.642 C 1494.56 296.242 1494.21 282.208 1499 269.547 C 1514.99 227.792 1575.06 231.546 1609.13 244.669 C 1601.24 196.617 1556.5 193.71 1519.48 212.037 C 1515.65 200.628 1510.83 190.203 1505.89 179.268 C 1523.22 172.414 1540.81 169.135 1559.28 167.402 z"/>
<path transform="translate(0,0)" fill="rgb(2,1,1)" d="M 1565.92 264.276 C 1580.59 262.692 1595.16 265.431 1609.11 269.689 C 1609.54 291.689 1604.42 300.37 1583.07 307.606 L 1581.82 307.852 C 1535.07 316.773 1524.39 270.784 1565.92 264.276 z"/>
<path transform="translate(0,0)" fill="rgb(254,254,254)" d="M 1843.64 106.903 C 1906.85 107.733 1971.68 107.003 2035.03 107.021 C 2034.77 120.36 2034.97 134.339 2034.96 147.731 L 1963.81 147.715 L 1963.76 263.5 L 1963.74 333.015 L 1916.77 333.137 L 1916.23 147.617 C 1892.05 147.47 1867.86 147.499 1843.67 147.705 L 1843.64 106.903 z"/>
<path transform="translate(0,0)" fill="rgb(254,254,254)" d="M 1772.34 168.177 C 1806.95 165.244 1833.51 179.973 1841.7 215.674 C 1845.53 232.357 1844.11 252.718 1844.02 270.113 C 1843.86 291.106 1843.82 312.1 1843.9 333.094 L 1798.23 333.113 L 1798.24 273.324 C 1798.26 260.437 1799.07 245.738 1797.09 233.101 C 1792.37 203.053 1764.97 197.258 1742.59 214.657 L 1742.27 214.974 C 1725.22 232.35 1727.93 252.162 1727.89 274.627 C 1727.85 294.05 1727.96 313.504 1728.01 332.929 L 1683.81 332.998 C 1684.28 282.313 1684.86 223.813 1683.42 173.444 L 1724.69 173.692 L 1725.07 197.888 C 1739.52 180.739 1749.95 172.84 1772.34 168.177 z"/>
<path transform="translate(0,0)" fill="rgb(254,254,254)" d="M 797.022 107.028 L 842.707 107.245 C 842.054 148.199 842.487 191.227 842.853 232.217 C 843.352 287.987 834.41 328.913 770.39 335.625 C 758.364 336.879 746.031 335 734.316 332.422 C 734.777 317.182 734.328 301.3 734.102 286.005 C 758.357 296.539 790.658 298.996 796.434 264.097 C 799.074 248.146 797.341 226.203 797.264 209.526 L 797.022 107.028 z"/>
<path transform="translate(0,0)" fill="rgb(254,254,254)" d="M 1273.14 168.275 C 1276.24 167.884 1282.62 167.689 1285.95 167.491 L 1286.12 208.24 C 1281.91 207.722 1277.67 207.443 1273.42 207.406 C 1252.68 207.327 1230.26 219.766 1227.35 240.707 C 1223.42 269.016 1225.34 304.138 1225.43 332.95 L 1181.43 333.052 L 1181.65 323.867 C 1182.32 274.311 1181.69 223.454 1181.72 173.788 L 1222.27 174.025 L 1223 201.416 C 1224.09 199.715 1225.23 198.04 1226.41 196.393 C 1238.24 179.91 1253.45 171.493 1273.14 168.275 z"/>
<path transform="translate(0,0)" fill="rgb(223,252,10)" d="M 129.964 55.1792 C 134.359 57.5835 144.128 62.6067 147.842 65.2496 C 163.128 73.6565 183.258 84.0611 197.774 92.9642 C 199.084 100.094 176.355 123.585 170.899 130.519 L 168.998 130.282 C 167.614 131.915 168.01 134.468 168.056 136.708 C 156.286 151.256 147.491 162.706 136.501 178.059 L 136.379 183.553 L 134.461 185.111 L 134.555 184.394 C 131.535 186.803 132.243 188.126 130.738 190.36 C 130.686 186.666 132.205 181.415 133.115 177.693 C 131.563 176.478 130.123 172.957 129.186 171.037 C 125.836 163.349 105.079 135.369 99.4002 128.054 L 96.5587 123.449 C 94.8115 121.444 90.0825 114.341 88.3453 111.844 C 92.1506 108.845 99.755 108.255 104.12 106.156 C 108.219 104.186 126.303 95.6795 128.84 93.0564 C 128.795 86.3198 128.324 60.4766 129.964 55.1792 z"/>
<path transform="translate(0,0)" fill="rgb(182,255,40)" d="M 129.964 55.1792 C 134.359 57.5835 144.128 62.6067 147.842 65.2496 C 145.765 70.454 140.98 80.1142 136.545 83.4207 L 132.685 83.8718 C 129.823 90.058 129.839 110.105 129.146 118.171 C 129.204 134.31 129.913 155.295 129.186 171.037 C 125.836 163.349 105.079 135.369 99.4002 128.054 L 96.5587 123.449 C 94.8115 121.444 90.0825 114.341 88.3453 111.844 C 92.1506 108.845 99.755 108.255 104.12 106.156 C 108.219 104.186 126.303 95.6795 128.84 93.0564 C 128.795 86.3198 128.324 60.4766 129.964 55.1792 z"/>
<path transform="translate(0,0)" fill="rgb(96,246,66)" d="M 88.3453 111.844 C 92.1506 108.845 99.755 108.255 104.12 106.156 C 108.219 104.186 126.303 95.6795 128.84 93.0564 L 128.868 101.745 C 121.191 104.072 102.728 118.108 96.5587 123.449 C 94.8115 121.444 90.0825 114.341 88.3453 111.844 z"/>
<path transform="translate(0,0)" fill="rgb(117,0,124)" d="M 187.284 286.164 C 190.164 288.233 198.564 287.207 202.48 287.05 L 202.195 298.697 C 202.093 315.115 202.275 332.559 201.674 348.891 L 189.074 356.164 L 127.583 391.621 C 126.474 379.799 127.965 339.1 128.212 325.401 L 127.402 323.287 C 128.054 319.153 129.13 312.112 127.839 308.259 C 131.494 308.403 135.148 308.593 138.799 308.828 L 140.979 308.761 C 163.749 308.106 174.147 305.192 187.284 286.164 z"/>
<path transform="translate(0,0)" fill="rgb(226,7,81)" d="M 187.284 286.164 C 190.164 288.233 198.564 287.207 202.48 287.05 L 202.195 298.697 C 202.093 315.115 202.275 332.559 201.674 348.891 L 189.074 356.164 L 140.979 308.761 C 163.749 308.106 174.147 305.192 187.284 286.164 z"/>
<path transform="translate(0,0)" fill="rgb(135,0,148)" d="M 127.839 308.259 C 131.494 308.403 135.148 308.593 138.799 308.828 C 134.528 314.353 130.635 318.781 128.212 325.401 L 127.402 323.287 C 128.054 319.153 129.13 312.112 127.839 308.259 z"/>
<path transform="translate(0,0)" fill="rgb(238,227,7)" d="M 197.774 92.9642 L 245.19 119.729 C 237.407 130.763 224.705 142.996 215.906 153.83 L 170.899 130.519 C 176.355 123.585 199.084 100.094 197.774 92.9642 z"/>
<path transform="translate(0,0)" fill="rgb(14,148,185)" d="M 9.7389 104.537 C 18.5153 105.225 36.6282 129.334 44.5684 135.245 C 43.3672 138.571 43.0215 139.603 40.9725 142.476 C 35.2616 152.848 23.8712 169.269 19.8733 177.365 C 17.2812 180.741 10.0166 189.259 9.84882 193.113 L 9.15152 193.284 C 9.21652 167.532 8.1618 130.724 9.71803 105.576 L 9.7389 104.537 z"/>
<path transform="translate(0,0)" fill="rgb(27,199,179)" d="M 9.7389 104.537 C 18.5153 105.225 36.6282 129.334 44.5684 135.245 C 43.3672 138.571 43.0215 139.603 40.9725 142.476 C 38.6369 141.374 37.143 140.193 36.6533 137.732 L 39.0314 138.849 L 38.8999 138.289 C 31.595 130.488 21.7295 127.024 11.9818 122.555 C 10.2189 123.734 11.9793 127.877 10.7657 131.453 C 9.87138 128.335 10.1226 110.874 9.71803 105.576 L 9.7389 104.537 z"/>
</svg>