<svg xmlns="http://www.w3.org/2000/svg" width="151" height="32" viewBox="0 0 151 32" fill="none"><path d="M2.55512 32C2.14019 31.4754 1.65974 30.8524 1.11377 30.1311C0.567805 29.4097 0.196548 28.9179 0 28.6556L5.17576 9.04838H12.7756L11.2687 14.8519H5.56885L5.43782 15.3765H9.66359C9.88198 15.6606 10.2314 16.1634 10.7118 16.8847L8.255 26.1965H14.2825L18.8031 9.04838H26.4357L21.2599 28.6556C20.7139 29.0709 19.9823 29.6283 19.0651 30.3278C18.1697 31.0273 17.46 31.5847 16.9359 32H2.55512Z" fill="white"></path><path d="M30.935 32H23.3024L29.3954 9.04838H47.1502C47.6743 9.74786 48.526 10.8626 49.7053 12.3928L47.8381 19.4422C47.314 19.8575 46.5933 20.4149 45.6761 21.1144C44.7807 21.8139 44.06 22.3713 43.5141 22.7866H43.4813C43.7871 23.18 44.6388 24.2948 46.0364 26.1309L44.4968 32H36.897L39.3211 22.7866H33.3591L30.935 32ZM29.7557 14.8519L29.6247 15.3765H33.8832C34.1016 15.7044 34.451 16.2071 34.9315 16.8847L34.5712 18.2618H40.5659L41.4503 14.8519H29.7557Z" fill="white"></path><path d="M65.0186 32H47.2311L53.3241 9.04838H71.1116C72.553 10.9064 73.4047 12.0212 73.6667 12.3928L71.7995 19.4422C71.2754 19.8575 70.5547 20.4149 69.6375 21.1144C68.7421 21.8139 68.0215 22.3713 67.4755 22.7866H70.8823L69.3427 28.6556C67.7485 29.8797 66.3071 30.9945 65.0186 32ZM62.398 26.1965L63.2825 22.7866H57.2878L56.3705 26.1965H62.398ZM53.6844 14.8519L53.5534 15.3765H57.8119C58.0303 15.6825 58.3797 16.1853 58.8601 16.8847L58.4671 18.2618H64.5273L65.4117 14.8519H53.6844Z" fill="white"></path><path d="M87.2416 22.7866H81.1814L78.7573 32H71.1247L76.3332 12.3928C78.8883 10.4036 80.3297 9.28882 80.6572 9.04838H95.0052C95.7259 9.9883 96.5776 11.1031 97.5603 12.3928L92.3846 32H84.8175L87.2416 22.7866ZM77.578 14.8519L77.447 15.3765H81.7055C81.9894 15.7918 82.3388 16.2945 82.7537 16.8847L82.3934 18.2618H88.4209L89.3053 14.8519H77.578Z" fill="white"></path><path d="M119.421 9.04838H127.087L120.994 32H110.773L107.498 14.8519H101.798L101.667 15.3765H105.925C106.122 15.6606 106.471 16.1634 106.973 16.8847L102.977 32H95.3443L101.437 9.04838H111.92L114.934 26.1965L119.421 9.04838Z" fill="white"></path><path d="M125.321 32L132.305 5.83628H120.581L122.121 0L150.989 0.0327877L149.482 5.83628H134.205L134.074 6.29532H138.333C138.508 6.55762 138.857 7.06037 139.381 7.80357L132.953 32H125.321Z" fill="white"></path></svg>