<svg version="1.1" xmlns="http://www.w3.org/2000/svg" style="display: block;" viewBox="0 0 2048 479" width="1124" height="263" preserveAspectRatio="none">
<defs>
	<linearGradient id="Gradient1" gradientUnits="userSpaceOnUse" x1="112.963" y1="215.787" x2="93.1874" y2="246.929">
		<stop class="stop0" offset="0" stop-opacity="1" stop-color="rgb(34,207,91)"/>
		<stop class="stop1" offset="1" stop-opacity="1" stop-color="rgb(16,160,139)"/>
	</linearGradient>
	<linearGradient id="Gradient2" gradientUnits="userSpaceOnUse" x1="224.308" y1="131.331" x2="120.326" y2="127.956">
		<stop class="stop0" offset="0" stop-opacity="1" stop-color="rgb(240,217,0)"/>
		<stop class="stop1" offset="1" stop-opacity="1" stop-color="rgb(149,253,35)"/>
	</linearGradient>
	<linearGradient id="Gradient3" gradientUnits="userSpaceOnUse" x1="83.9868" y1="174.492" x2="77.9837" y2="151.028">
		<stop class="stop0" offset="0" stop-opacity="1" stop-color="rgb(30,221,118)"/>
		<stop class="stop1" offset="1" stop-opacity="1" stop-color="rgb(9,198,144)"/>
	</linearGradient>
	<linearGradient id="Gradient4" gradientUnits="userSpaceOnUse" x1="98.579" y1="169.915" x2="60.287" y2="149.404">
		<stop class="stop0" offset="0" stop-opacity="1" stop-color="rgb(17,216,112)"/>
		<stop class="stop1" offset="1" stop-opacity="1" stop-color="rgb(0,175,185)"/>
	</linearGradient>
</defs>
<path transform="translate(0,0)" fill="rgb(0,0,0)" d="M 0 0 L 2048 0 L 2048 479 L 0 479 L 0 0 z"/>
<path transform="translate(0,0)" fill="rgb(0,0,0)" d="M 28.9343 118.956 L 28.7523 71.5705 C 28.695 51.3335 25.3126 23.1137 54.464 21.8012 C 68.9883 21.1473 76.0062 23.267 88.143 31.1606 C 95.6387 35.2789 128.026 52.0241 132.364 56.0421 C 137.882 58.9666 145.869 62.9317 150.891 66.2506 C 156.988 69.6341 210.692 98.9617 212.357 101.346 C 228.063 108.603 251.029 122.86 266.664 132.054 C 279.168 139.22 291.631 146.458 304.052 153.767 C 309.208 156.45 362.368 186.04 364.191 188.314 C 369.428 190.649 372.385 192.097 377.341 195.044 C 397.316 206.506 427.453 216.908 417.411 244.945 C 410.735 254.666 402.091 258.932 392.111 265.006 L 311.783 312.565 L 253.504 347.851 C 244.728 353.16 231.021 361.937 222.371 366.428 C 221.946 349.13 221.857 331.825 222.104 314.523 C 222.296 310.984 222.817 307.693 221.183 304.563 C 216.367 301.076 212.689 305.465 207.282 300.154 C 194.91 319.953 183.51 324.519 160.928 325.191 L 150.742 324.86 C 149.846 333.612 148.997 345.415 147.62 353.876 C 150.214 366.105 145.136 402.489 148.976 411.105 C 137.82 418.05 109.556 436.092 99.1649 440.693 C 96.7728 443.085 92.4299 445.165 89.3428 446.836 C 75.4919 457.887 44.814 463.503 34.4057 445.899 C 29.1973 439.274 29.0957 425.158 29.1207 416.918 C 29.2048 389.15 28.5164 361.239 29.1357 333.486 L 28.9075 253.352 L 28.9253 189.627 C 28.849 172.751 28.9185 155.874 29.1339 138.999 C 28.8517 132.794 28.9906 125.271 28.9343 118.956 z"/>
<path transform="translate(0,0)" fill="rgb(0,0,0)" d="M 266.664 132.054 C 279.168 139.22 291.631 146.458 304.052 153.767 C 309.208 156.45 362.368 186.04 364.191 188.314 C 369.428 190.649 372.385 192.097 377.341 195.044 C 397.316 206.506 427.453 216.908 417.411 244.945 C 410.735 254.666 402.091 258.932 392.111 265.006 L 311.783 312.565 L 253.504 347.851 C 244.728 353.16 231.021 361.937 222.371 366.428 C 221.946 349.13 221.857 331.825 222.104 314.523 C 222.296 310.984 222.817 307.693 221.183 304.563 C 216.367 301.076 212.689 305.465 207.282 300.154 C 213.152 287.554 212.884 269.209 213.55 255.28 C 213.808 248.469 213.986 242.495 214.876 235.736 C 214.755 227.445 215.375 218.868 215.848 210.567 L 204.345 204.525 C 211.324 199.569 213.765 198.798 215.864 190.578 C 210.117 187.437 192.493 177.289 187.652 176.732 C 188.649 170.274 186.218 146.518 190.067 142.885 L 193.389 144.178 C 207.248 151.928 221.275 159.374 235.459 166.511 C 242.332 157.717 258.721 140.313 266.664 132.054 z"/>
<path transform="translate(0,0)" fill="rgb(245,49,3)" d="M 364.191 188.314 C 369.428 190.649 372.385 192.097 377.341 195.044 C 397.316 206.506 427.453 216.908 417.411 244.945 C 410.735 254.666 402.091 258.932 392.111 265.006 L 311.783 312.565 C 307.091 309.421 301.418 302.704 297.846 298.403 C 294.703 302.011 290.866 306.92 286.891 309.364 C 289.029 305.207 292.291 302.25 295.562 298.938 C 293.206 296.072 288.607 292.097 287.645 288.876 C 284.38 285.195 280.903 279.706 276.655 278.782 C 277.125 267.57 278.172 255.487 278.955 244.223 C 300.098 244.226 321.512 242.09 342.739 243.245 L 345.632 241.712 C 356.251 229.912 367.637 215.284 372.918 200.102 C 375.231 193.453 367.702 194.008 364.191 188.314 z"/>
<path transform="translate(0,0)" fill="rgb(226,25,31)" d="M 344.127 244.071 C 348.804 244.05 356.073 243.823 360.563 244.116 C 365.362 246.065 373.34 245.537 378.749 245.502 L 381.837 251.476 C 382.664 250.709 382.459 251.159 382.676 250.215 C 384.246 252.707 390.679 263.454 392.111 265.006 L 311.783 312.565 C 307.091 309.421 301.418 302.704 297.846 298.403 C 294.703 302.011 290.866 306.92 286.891 309.364 C 289.029 305.207 292.291 302.25 295.562 298.938 C 293.206 296.072 288.607 292.097 287.645 288.876 C 290.524 290.006 295.298 295.629 297.603 298.103 C 313.132 280.713 328.383 261.779 344.127 244.071 z"/>
<path transform="translate(0,0)" fill="rgb(226,25,31)" d="M 377.341 195.044 C 397.316 206.506 427.453 216.908 417.411 244.945 C 410.735 254.666 402.091 258.932 392.111 265.006 C 390.679 263.454 384.246 252.707 382.676 250.215 C 382.459 251.159 382.664 250.709 381.837 251.476 L 378.749 245.502 C 373.34 245.537 365.362 246.065 360.563 244.116 C 366.406 243.832 373.999 244.018 379.98 243.986 C 374.779 236.483 369.42 229.09 363.908 221.812 C 368.5 213.978 374.145 203.436 377.341 195.044 z"/>
<path transform="translate(0,0)" fill="rgb(179,17,56)" d="M 382.676 250.215 C 382.013 248.668 381.48 247.008 380.936 245.41 L 381.868 244.465 C 393.713 244.759 405.562 244.919 417.411 244.945 C 410.735 254.666 402.091 258.932 392.111 265.006 C 390.679 263.454 384.246 252.707 382.676 250.215 z"/>
<path transform="translate(0,0)" fill="rgb(244,112,7)" d="M 266.664 132.054 C 279.168 139.22 291.631 146.458 304.052 153.767 C 309.208 156.45 362.368 186.04 364.191 188.314 C 367.702 194.008 375.231 193.453 372.918 200.102 C 367.637 215.284 356.251 229.912 345.632 241.712 C 341.705 241.181 324.112 241.516 319.187 241.508 C 319.346 234.291 319.949 215.383 318.451 209.536 C 312.052 206.327 281.015 191.11 276.605 187.525 C 269.69 185.198 243.365 170.728 235.459 166.511 C 242.332 157.717 258.721 140.313 266.664 132.054 z"/>
<path transform="translate(0,0)" fill="rgb(236,170,4)" d="M 266.664 132.054 C 279.168 139.22 291.631 146.458 304.052 153.767 L 303.688 155.325 C 297.584 153.409 293.563 147.99 290.566 150.191 C 281.992 156.487 266.287 169.753 259.962 177.52 C 263.867 179.391 274.168 184.006 276.98 186.42 L 276.605 187.525 C 269.69 185.198 243.365 170.728 235.459 166.511 C 242.332 157.717 258.721 140.313 266.664 132.054 z"/>
<path transform="translate(0,0)" fill="rgb(197,6,20)" d="M 274.975 301.925 C 275.55 294.589 275.48 285.888 276.655 278.782 C 280.903 279.706 284.38 285.195 287.645 288.876 C 288.607 292.097 293.206 296.072 295.562 298.938 C 292.291 302.25 289.029 305.207 286.891 309.364 C 290.866 306.92 294.703 302.011 297.846 298.403 C 301.418 302.704 307.091 309.421 311.783 312.565 L 253.504 347.851 C 244.728 353.16 231.021 361.937 222.371 366.428 C 221.946 349.13 221.857 331.825 222.104 314.523 C 229.548 310.073 237.988 297.272 245.054 294.285 C 244.751 302.139 244.352 309.989 243.857 317.833 L 274.975 301.925 z"/>
<path transform="translate(0,0)" fill="rgb(226,25,31)" d="M 214.876 235.736 C 214.996 239.024 214.984 242.322 215.775 245.515 C 218.713 247.024 219.36 246.505 223.189 245.311 C 228.291 250.054 241.013 262.335 244.915 268.036 L 246.92 270.169 C 246.459 278.219 245.837 286.259 245.054 294.285 C 237.988 297.272 229.548 310.073 222.104 314.523 C 222.296 310.984 222.817 307.693 221.183 304.563 C 216.367 301.076 212.689 305.465 207.282 300.154 C 213.152 287.554 212.884 269.209 213.55 255.28 C 213.808 248.469 213.986 242.495 214.876 235.736 z"/>
<path transform="translate(0,0)" fill="rgb(242,96,13)" d="M 214.876 235.736 C 214.996 239.024 214.984 242.322 215.775 245.515 C 218.713 247.024 219.36 246.505 223.189 245.311 C 228.291 250.054 241.013 262.335 244.915 268.036 C 239.938 266.103 234.654 259.861 230.546 255.832 L 228.653 256.202 L 226.767 259.763 C 224.174 254.984 218.892 262.023 214.507 260.572 L 213.55 255.28 C 213.808 248.469 213.986 242.495 214.876 235.736 z"/>
<path transform="translate(0,0)" fill="rgb(244,112,7)" d="M 215.864 190.578 C 222.789 194.178 247.308 205.834 250.615 211.11 C 250.679 213.238 250.768 214.425 250.375 216.514 C 244.713 218.463 225.845 240.147 223.189 245.311 C 219.36 246.505 218.713 247.024 215.775 245.515 C 214.984 242.322 214.996 239.024 214.876 235.736 C 214.755 227.445 215.375 218.868 215.848 210.567 L 204.345 204.525 C 211.324 199.569 213.765 198.798 215.864 190.578 z"/>
<path transform="translate(0,0)" fill="rgb(236,170,4)" d="M 250.375 216.514 C 249.414 234.411 248.262 252.297 246.92 270.169 L 244.915 268.036 C 241.013 262.335 228.291 250.054 223.189 245.311 C 225.845 240.147 244.713 218.463 250.375 216.514 z"/>
<path transform="translate(0,0)" fill="rgb(242,96,13)" d="M 318.451 209.536 C 319.949 215.383 319.346 234.291 319.187 241.508 C 324.112 241.516 341.705 241.181 345.632 241.712 L 342.739 243.245 C 321.512 242.09 300.098 244.226 278.955 244.223 C 279.459 237.013 280.08 229.811 280.818 222.621 C 290.899 227.792 307.792 237.236 317.62 241.015 C 317.39 233.935 316.498 215.039 318.451 209.536 z"/>
<path transform="translate(0,0)" fill="rgb(22,30,196)" d="M 28.9253 189.627 L 30.8819 188.291 C 30.6586 190.98 30.4518 192.557 30.838 195.287 L 32.2346 196.898 L 35.7217 195.391 C 36.3942 194.854 39.3355 191.176 40.0795 190.277 C 42.8355 192.908 48.4918 200.21 49.7246 201.203 C 56.7511 200.001 76.8155 201.212 85.2405 201.47 C 85.1392 209.424 85.0853 217.378 85.0789 225.332 C 84.7097 229.467 85.1204 239.525 83.5706 242.021 C 84.264 243.134 85.472 245.204 86.2489 246.129 C 93.0199 245.788 102.346 245.739 109.035 246.945 C 108.894 253.801 108.996 263.431 108.464 270.056 C 108.576 301.591 116.038 320.582 150.742 324.86 C 149.846 333.612 148.997 345.415 147.62 353.876 C 150.214 366.105 145.136 402.489 148.976 411.105 C 137.82 418.05 109.556 436.092 99.1649 440.693 C 96.7728 443.085 92.4299 445.165 89.3428 446.836 C 75.4919 457.887 44.814 463.503 34.4057 445.899 C 29.1973 439.274 29.0957 425.158 29.1207 416.918 C 29.2048 389.15 28.5164 361.239 29.1357 333.486 L 28.9075 253.352 L 28.9253 189.627 z"/>
<path transform="translate(0,0)" fill="rgb(55,0,129)" d="M 29.1357 333.486 C 30.2428 343.174 31.916 356.784 31.4897 366.242 C 46.5296 370.469 55.532 369.885 70.9686 367.81 C 92.1022 364.97 82.0358 358.312 87.1169 342.743 C 94.3145 348.47 110.481 366.557 117.057 373.826 C 124.924 370.316 141.39 346.916 146.911 343.67 C 146.891 347.71 147.085 349.865 147.62 353.876 C 150.214 366.105 145.136 402.489 148.976 411.105 C 137.82 418.05 109.556 436.092 99.1649 440.693 C 96.7728 443.085 92.4299 445.165 89.3428 446.836 C 75.4919 457.887 44.814 463.503 34.4057 445.899 C 29.1973 439.274 29.0957 425.158 29.1207 416.918 C 29.2048 389.15 28.5164 361.239 29.1357 333.486 z"/>
<path transform="translate(0,0)" fill="rgb(88,1,116)" d="M 87.1169 342.743 C 94.3145 348.47 110.481 366.557 117.057 373.826 C 115.805 380.52 99.6323 395.358 95.8101 401.308 C 93.859 403.014 88.8459 409.389 86.9487 411.695 C 87.8939 397.247 87.4435 358.02 87.1169 342.743 z"/>
<path transform="translate(0,0)" fill="rgb(6,0,91)" d="M 86.7283 412.569 C 87.0259 419.279 87.5924 441.79 89.3428 446.836 C 75.4919 457.887 44.814 463.503 34.4057 445.899 C 40.4753 449.019 42.1493 453.513 51.7724 454.557 C 59.0571 452.619 80.7946 420.671 86.7283 412.569 z"/>
<path transform="translate(0,0)" fill="rgb(74,3,214)" d="M 86.2489 246.129 C 93.0199 245.788 102.346 245.739 109.035 246.945 C 108.894 253.801 108.996 263.431 108.464 270.056 C 108.576 301.591 116.038 320.582 150.742 324.86 C 149.846 333.612 148.997 345.415 147.62 353.876 C 147.085 349.865 146.891 347.71 146.911 343.67 C 141.39 346.916 124.924 370.316 117.057 373.826 C 110.481 366.557 94.3145 348.47 87.1169 342.743 C 86.076 341.076 80.3688 335.589 78.6882 333.755 C 64.4826 318.249 49.7857 303.342 36.6031 286.932 C 44.2249 279.627 73.8518 257.382 77.3856 252.522 C 80.7701 249.644 81.8853 248.902 85.8126 246.82 L 86.2489 246.129 z"/>
<path transform="translate(0,0)" fill="rgb(37,84,167)" d="M 86.2489 246.129 C 93.0199 245.788 102.346 245.739 109.035 246.945 C 108.894 253.801 108.996 263.431 108.464 270.056 C 102.266 265.036 90.3971 253.076 85.8126 246.82 L 86.2489 246.129 z"/>
<path transform="translate(0,0)" fill="rgb(0,174,145)" d="M 49.7246 201.203 C 56.7511 200.001 76.8155 201.212 85.2405 201.47 C 85.1392 209.424 85.0853 217.378 85.0789 225.332 C 84.7097 229.467 85.1204 239.525 83.5706 242.021 C 78.0125 236.638 56.3318 209.444 49.7042 201.866 L 49.7246 201.203 z"/>
<path transform="translate(0,0)" fill="rgb(37,84,167)" d="M 28.9253 189.627 L 30.8819 188.291 C 30.6586 190.98 30.4518 192.557 30.838 195.287 L 32.2346 196.898 L 35.7217 195.391 C 36.3942 194.854 39.3355 191.176 40.0795 190.277 C 42.8355 192.908 48.4918 200.21 49.7246 201.203 L 49.7042 201.866 C 56.3318 209.444 78.0125 236.638 83.5706 242.021 C 84.264 243.134 85.472 245.204 86.2489 246.129 L 85.8126 246.82 C 81.8853 248.902 80.7701 249.644 77.3856 252.522 C 75.3039 249.074 80.9681 249.526 81.6833 244.5 C 76.1879 236.053 60.0364 214.778 51.2285 208.737 C 52.0361 209.291 32.6578 208.315 32.8922 208.245 C 28.9093 213.516 32.9998 243.793 30.5304 254.071 L 28.9075 253.352 L 28.9253 189.627 z"/>
<path transform="translate(0,0)" fill="rgb(4,145,221)" d="M 40.0795 190.277 C 42.8355 192.908 48.4918 200.21 49.7246 201.203 L 49.7042 201.866 C 47.2193 201.989 30.4887 206.798 27.4078 207.658 C 30.2344 203.607 33.006 199.518 35.7217 195.391 C 36.3942 194.854 39.3355 191.176 40.0795 190.277 z"/>
<path transform="translate(0,0)" fill="rgb(14,171,70)" d="M 28.9343 118.956 L 28.7523 71.5705 C 28.695 51.3335 25.3126 23.1137 54.464 21.8012 C 68.9883 21.1473 76.0062 23.267 88.143 31.1606 C 95.6387 35.2789 128.026 52.0241 132.364 56.0421 C 137.882 58.9666 145.869 62.9317 150.891 66.2506 C 146.188 71.7005 151.142 108.247 147.421 115.114 C 146.053 117.638 118.93 133.149 115.363 134.148 C 113.533 132.835 108.021 122.917 104.506 120.571 L 103.118 120.867 C 99.6051 116.751 93.6252 107.447 90.3262 105.074 C 86.3803 108.642 90.2986 125.023 86.9748 129.934 C 86.2414 136.474 86.1408 141.453 86.058 148.042 C 85.5184 156.181 85.1135 175.16 84.1464 181.962 C 85.1986 186.381 85.5866 196.826 85.2405 201.47 C 76.8155 201.212 56.7511 200.001 49.7246 201.203 C 48.4918 200.21 42.8355 192.908 40.0795 190.277 C 39.3355 191.176 36.3942 194.854 35.7217 195.391 L 32.2346 196.898 L 30.838 195.287 C 30.4518 192.557 30.6586 190.98 30.8819 188.291 L 28.9253 189.627 C 28.849 172.751 28.9185 155.874 29.1339 138.999 C 28.8517 132.794 28.9906 125.271 28.9343 118.956 z"/>
<path transform="translate(0,0)" fill="rgb(97,216,39)" d="M 132.364 56.0421 C 137.882 58.9666 145.869 62.9317 150.891 66.2506 C 146.188 71.7005 151.142 108.247 147.421 115.114 C 146.053 117.638 118.93 133.149 115.363 134.148 C 113.533 132.835 108.021 122.917 104.506 120.571 C 100.263 113.731 93.0657 104.648 88.103 98.0087 C 100.129 84.8384 117.541 74.2508 130.537 62.0049 C 131.529 61.07 132.143 57.5243 132.364 56.0421 z"/>
<path transform="translate(0,0)" fill="url(#Gradient4)" d="M 78.5793 115.2 C 81.035 110.158 83.635 104.419 86.6605 99.7538 C 86.7045 105.804 86.4086 124.806 86.9748 129.934 C 86.2414 136.474 86.1408 141.453 86.058 148.042 C 85.5184 156.181 85.1135 175.16 84.1464 181.962 C 85.1986 186.381 85.5866 196.826 85.2405 201.47 C 76.8155 201.212 56.7511 200.001 49.7246 201.203 C 48.4918 200.21 42.8355 192.908 40.0795 190.277 C 48.3966 178.287 55.9116 163.841 62.74 150.933 C 66.6074 145.416 78.1974 121.338 78.5793 115.2 z"/>
<path transform="translate(0,0)" fill="url(#Gradient3)" d="M 73.646 159.271 C 73.9284 158.583 74.2169 157.898 74.5115 157.215 C 78.3406 148.358 78.0079 151.231 86.058 148.042 C 85.5184 156.181 85.1135 175.16 84.1464 181.962 C 78.8851 175.474 76.315 167.083 73.646 159.271 z"/>
<path transform="translate(0,0)" fill="rgb(65,214,80)" d="M 88.143 31.1606 C 95.6387 35.2789 128.026 52.0241 132.364 56.0421 C 132.143 57.5243 131.529 61.07 130.537 62.0049 C 117.541 74.2508 100.129 84.8384 88.103 98.0087 C 87.8806 87.9695 85.9265 37.0893 88.143 31.1606 z"/>
<path transform="translate(0,0)" fill="rgb(3,132,162)" d="M 29.1339 138.999 C 33.2932 133.997 29.1505 129.998 34.0828 127.427 C 41.2093 127.133 58.603 145.375 62.74 150.933 C 55.9116 163.841 48.3966 178.287 40.0795 190.277 C 39.3355 191.176 36.3942 194.854 35.7217 195.391 L 32.2346 196.898 L 30.838 195.287 C 30.4518 192.557 30.6586 190.98 30.8819 188.291 L 28.9253 189.627 C 28.849 172.751 28.9185 155.874 29.1339 138.999 z"/>
<path transform="translate(0,0)" fill="rgb(0,174,145)" d="M 28.9343 118.956 C 42.919 121.936 54.8599 144.568 64.1909 144.682 C 70.1552 135.877 70.9506 124.549 78.421 115.391 L 78.5793 115.2 C 78.1974 121.338 66.6074 145.416 62.74 150.933 C 58.603 145.375 41.2093 127.133 34.0828 127.427 C 29.1505 129.998 33.2932 133.997 29.1339 138.999 C 28.8517 132.794 28.9906 125.271 28.9343 118.956 z"/>
<path transform="translate(0,0)" fill="url(#Gradient2)" d="M 150.891 66.2506 C 156.988 69.6341 210.692 98.9617 212.357 101.346 C 228.063 108.603 251.029 122.86 266.664 132.054 C 258.721 140.313 242.332 157.717 235.459 166.511 C 221.275 159.374 207.248 151.928 193.389 144.178 L 190.067 142.885 C 186.218 146.518 188.649 170.274 187.652 176.732 L 187.125 177.57 C 184.995 173.287 187.291 162.037 185.063 155.325 L 184.914 155.634 C 183.101 159.352 179.278 163.041 176.549 166.198 C 161.915 183.136 156.384 184.926 150.173 206.528 L 149.907 200.393 C 150.771 198.201 152.304 195.094 151.67 192.892 C 145.376 171.02 127.142 153.44 115.363 134.148 C 118.93 133.149 146.053 117.638 147.421 115.114 C 151.142 108.247 146.188 71.7005 150.891 66.2506 z"/>
<path transform="translate(0,0)" fill="rgb(215,208,5)" d="M 212.357 101.346 C 228.063 108.603 251.029 122.86 266.664 132.054 C 258.721 140.313 242.332 157.717 235.459 166.511 C 221.275 159.374 207.248 151.928 193.389 144.178 C 194.203 142.217 215.712 109.86 216.571 109.164 C 217.572 112.842 217.124 113.809 219.634 115.747 C 223.467 114.159 222.705 114.114 225.522 110.563 C 220.771 108.273 214.6 105.894 212.357 101.346 z"/>
<path transform="translate(0,0)" fill="rgb(65,214,80)" d="M 86.9748 129.934 C 90.2986 125.023 86.3803 108.642 90.3262 105.074 C 93.6252 107.447 99.6051 116.751 103.118 120.867 L 104.506 120.571 C 108.021 122.917 113.533 132.835 115.363 134.148 C 127.142 153.44 145.376 171.02 151.67 192.892 C 152.304 195.094 150.771 198.201 149.907 200.393 C 149.801 197.352 149.88 195.763 148.733 192.882 C 144.876 190.323 146.557 194.304 142.05 193.462 C 140.668 191.418 140.941 183.41 140.623 179.84 L 110.236 164.244 L 109.822 208.833 L 109.035 246.945 C 102.346 245.739 93.0199 245.788 86.2489 246.129 C 85.472 245.204 84.264 243.134 83.5706 242.021 C 85.1204 239.525 84.7097 229.467 85.0789 225.332 C 85.0853 217.378 85.1392 209.424 85.2405 201.47 C 85.5866 196.826 85.1986 186.381 84.1464 181.962 C 85.1135 175.16 85.5184 156.181 86.058 148.042 C 86.1408 141.453 86.2414 136.474 86.9748 129.934 z"/>
<path transform="translate(0,0)" fill="url(#Gradient1)" d="M 85.0789 225.332 C 87.6958 232.376 84.5453 232.742 86.9047 236.554 C 93.4899 234.7 97.046 214.833 104.756 211.453 C 106.77 210.569 107.955 209.994 109.822 208.833 L 109.035 246.945 C 102.346 245.739 93.0199 245.788 86.2489 246.129 C 85.472 245.204 84.264 243.134 83.5706 242.021 C 85.1204 239.525 84.7097 229.467 85.0789 225.332 z"/>
<path transform="translate(0,0)" fill="rgb(215,208,5)" d="M 150.173 206.528 C 156.384 184.926 161.915 183.136 176.549 166.198 C 179.278 163.041 183.101 159.352 184.914 155.634 L 185.063 155.325 C 187.291 162.037 184.995 173.287 187.125 177.57 L 187.652 176.732 C 192.493 177.289 210.117 187.437 215.864 190.578 C 213.765 198.798 211.324 199.569 204.345 204.525 L 187.475 195.852 C 186.803 210.552 186.37 227.086 185.167 241.701 C 183.187 244.801 183.228 245.716 179.009 246.028 C 172.284 245.599 163.444 245.8 156.557 245.766 L 150.814 245.445 L 149.574 243.821 C 149.114 234.542 148.652 215.536 150.173 206.528 z"/>
<path transform="translate(0,0)" fill="rgb(86,100,84)" d="M 156.557 245.766 C 163.444 245.8 172.284 245.599 179.009 246.028 C 177.791 251.688 177.205 263.533 176.203 267.17 L 176.127 267.713 C 178.428 270.011 181.234 272.636 183.085 275.24 L 182.948 281.017 C 176.583 280.987 171.125 284.136 165.269 286.851 C 163.375 290.105 161.226 294.05 159.242 297.169 L 148.886 295.9 C 149.667 281.424 149.047 260.781 149.045 245.927 L 150.814 245.445 L 156.557 245.766 z"/>
<path transform="translate(0,0)" fill="rgb(129,147,16)" d="M 156.557 245.766 C 163.444 245.8 172.284 245.599 179.009 246.028 C 177.791 251.688 177.205 263.533 176.203 267.17 C 169.84 260.57 162.07 252.921 156.557 245.766 z"/>
<path transform="translate(0,0)" fill="rgb(151,15,80)" d="M 176.127 267.713 C 178.428 270.011 181.234 272.636 183.085 275.24 L 182.948 281.017 C 176.583 280.987 171.125 284.136 165.269 286.851 C 167.838 280.845 172.266 272.951 176.127 267.713 z"/>
<path transform="translate(0,0)" fill="rgb(14,171,70)" d="M 140.623 179.84 C 140.941 183.41 140.668 191.418 142.05 193.462 C 146.557 194.304 144.876 190.323 148.733 192.882 C 149.88 195.763 149.801 197.352 149.907 200.393 L 150.173 206.528 C 148.652 215.536 149.114 234.542 149.574 243.821 L 150.814 245.445 L 149.045 245.927 L 139.014 245.83 C 139.62 229.134 138.636 194.221 140.623 179.84 z"/>
<path transform="translate(0,0)" fill="rgb(37,84,167)" d="M 139.014 245.83 L 149.045 245.927 C 149.047 260.781 149.667 281.424 148.886 295.9 C 147.376 295.03 144.268 293.162 143.203 291.996 C 135.763 283.85 138.66 257.014 139.014 245.83 z"/>
<path transform="translate(0,0)" fill="rgb(179,17,56)" d="M 165.269 286.851 C 171.125 284.136 176.583 280.987 182.948 281.017 C 178.876 294.536 173.057 297.558 159.242 297.169 C 161.226 294.05 163.375 290.105 165.269 286.851 z"/>
<path transform="translate(0,0)" fill="rgb(236,170,4)" d="M 185.167 241.701 C 184.672 252.892 183.978 264.074 183.085 275.24 C 181.234 272.636 178.428 270.011 176.127 267.713 L 176.203 267.17 C 177.205 263.533 177.791 251.688 179.009 246.028 C 183.228 245.716 183.187 244.801 185.167 241.701 z"/>
<path transform="translate(0,0)" fill="rgb(254,254,254)" d="M 531.88 117.807 L 586.138 117.643 C 630.377 117.572 670.487 118.192 704.21 151.907 C 724.717 172.635 736.103 200.691 735.839 229.849 C 735.745 263.105 722.662 288.934 699.442 311.992 C 651.96 356.031 592.198 348.555 531.919 348.467 L 531.88 117.807 z"/>
<path transform="translate(0,0)" fill="rgb(0,0,0)" d="M 578.845 157.715 C 610.348 157.479 640.972 155.551 665.705 179.097 C 679.201 191.966 686.963 209.716 687.25 228.362 C 687.735 251.554 679.417 268.354 663.73 284.677 C 636.452 308.383 612.857 308.575 578.797 308.292 L 578.845 157.715 z"/>
<path transform="translate(0,0)" fill="rgb(254,254,254)" d="M 1307.9 117.033 L 1350.84 116.977 L 1350.88 209.421 C 1351.19 209.052 1351.49 208.684 1351.8 208.318 C 1400.29 150.677 1479.27 187.676 1484.81 257.247 C 1486.97 284.428 1479.89 306.945 1462.21 327.771 C 1460.2 329.787 1458.14 331.749 1456.02 333.656 C 1440.63 347.187 1420.55 354.146 1400.08 353.041 C 1376.62 351.616 1363.7 339.118 1349.1 322.647 L 1348.48 348.416 C 1334.96 348.621 1321.44 348.622 1307.92 348.42 L 1307.9 117.033 z"/>
<path transform="translate(0,0)" fill="rgb(0,0,0)" d="M 1389.09 219.182 C 1449.67 212.986 1458.89 304.341 1400.99 314.713 C 1344.95 316.346 1328.26 231.89 1389.09 219.182 z"/>
<path transform="translate(0,0)" fill="rgb(254,254,254)" d="M 1112.34 117.876 L 1159.15 117.901 L 1159.14 159.5 L 1159.22 217.758 C 1159.29 257.385 1163.27 295.703 1132.58 326.358 C 1097.7 361.205 1031.47 363.077 996.327 327.861 C 985.798 317.161 978.363 303.809 974.812 289.223 C 969.515 268.06 971.002 233.861 971.003 210.753 L 971.057 117.932 L 1018.3 117.937 L 1018.54 216.196 C 1018.59 235.805 1017.09 261.274 1021.7 280.023 C 1029.99 312.891 1076.08 320.757 1098.21 298.199 C 1116.69 279.362 1112.51 238.972 1112.5 214.064 L 1112.34 117.876 z"/>
<path transform="translate(0,0)" fill="rgb(254,254,254)" d="M 1552.74 181.389 C 1554.54 181.003 1565.58 180.697 1567.82 180.689 C 1590.71 180.608 1613.21 185.419 1630 201.881 C 1654.51 225.896 1650.86 260.576 1650.79 292.324 L 1650.88 348.323 C 1638.01 348.467 1625.14 348.51 1612.27 348.451 C 1612.08 342.538 1611.39 335.924 1610.88 329.966 C 1584.85 356.06 1543.8 363.066 1513.12 340.914 C 1486.47 316.672 1492.42 272.803 1525.22 257.922 C 1551.52 245.993 1581.68 249.191 1608.07 258.548 C 1599.31 208.976 1559.21 209.292 1520.86 224.414 C 1516.65 216.361 1510.7 200.33 1507.76 191.795 C 1524.14 185.808 1535.5 183.281 1552.74 181.389 z"/>
<path transform="translate(0,0)" fill="rgb(0,0,0)" d="M 1564.7 279.282 C 1579.08 277.784 1593.62 279.316 1607.37 283.779 C 1608 305.275 1604.14 312.957 1583.65 321.457 C 1568.79 325.417 1545.62 324.633 1540.86 306.547 C 1539.56 301.754 1540.29 296.639 1542.88 292.399 C 1547.75 284.289 1556.13 281.371 1564.7 279.282 z"/>
<path transform="translate(0,0)" fill="rgb(254,254,254)" d="M 1774.37 180.363 C 1790.11 178.665 1807.98 183.924 1819.17 195.357 C 1841.61 218.277 1837.87 253.215 1837.72 282.842 L 1837.34 348.361 C 1822.85 348.573 1808.36 348.614 1793.88 348.484 L 1794.05 286.17 C 1794.07 272.792 1794.93 258.053 1792.59 244.96 C 1786.85 212.987 1755.36 212.046 1734.99 231.567 C 1721.43 249.244 1724.25 272.758 1724.28 294.001 C 1724.27 312.132 1724.36 330.263 1724.55 348.393 C 1709.98 348.551 1695.41 348.602 1680.83 348.544 L 1680.71 186.026 C 1693.79 185.779 1707.4 185.958 1720.53 185.948 L 1721.4 210.121 C 1737.08 192.418 1750.71 183.052 1774.37 180.363 z"/>
<path transform="translate(0,0)" fill="rgb(254,254,254)" d="M 1837.72 117.964 L 2022.23 117.915 L 2022.17 159.157 L 1953.29 159.279 L 1953.57 280.5 C 1953.43 303.089 1953.47 325.679 1953.68 348.267 C 1938.2 348.473 1922.72 348.548 1907.24 348.492 L 1907.3 159.03 L 1837.8 159.034 L 1837.72 117.964 z"/>
<path transform="translate(0,0)" fill="rgb(254,254,254)" d="M 813.396 117.926 L 857.756 117.88 L 857.788 223.824 C 857.888 284.306 863.189 342.372 786.242 350.76 C 772.787 351.326 764.179 350.737 750.809 349.013 L 750.95 301.858 C 775.276 311.207 807.489 314.46 812.389 279.645 C 814.96 261.376 813.582 240.314 813.531 221.61 L 813.396 117.926 z"/>
<path transform="translate(0,0)" fill="rgb(254,254,254)" d="M 1277.13 181.228 L 1290.08 180.467 L 1290.02 221.23 C 1286.9 221.08 1283.78 220.989 1280.65 220.959 C 1247.1 220.83 1231.44 241.806 1231.86 273.49 C 1232.19 298.309 1231.94 323.646 1231.98 348.494 C 1223.04 348.621 1197.62 349.517 1189.99 348.33 C 1188.24 345.476 1188.83 344.035 1188.73 340.25 L 1188.66 186.129 L 1228.06 186.128 L 1229.19 212.717 C 1242.41 194.125 1254.5 185.446 1277.13 181.228 z"/>
<path transform="translate(0,0)" fill="rgb(88,1,116)" d="M 207.282 300.154 C 212.689 305.465 216.367 301.076 221.183 304.563 C 222.817 307.693 222.296 310.984 222.104 314.523 C 221.857 331.825 221.946 349.13 222.371 366.428 C 218.182 369.067 213.881 371.866 209.592 374.31 C 195.235 383.325 162.771 404.238 148.976 411.105 C 145.136 402.489 150.214 366.105 147.62 353.876 C 148.997 345.415 149.846 333.612 150.742 324.86 L 160.928 325.191 C 183.51 324.519 194.91 319.953 207.282 300.154 z"/>
<path transform="translate(0,0)" fill="rgb(151,15,80)" d="M 207.282 300.154 C 212.689 305.465 216.367 301.076 221.183 304.563 C 222.817 307.693 222.296 310.984 222.104 314.523 C 221.857 331.825 221.946 349.13 222.371 366.428 C 218.182 369.067 213.881 371.866 209.592 374.31 C 204.105 371.527 167.006 331.998 160.928 325.191 C 183.51 324.519 194.91 319.953 207.282 300.154 z"/>
</svg>